<?xml version="1.0" standalone="no"?>
<!DOCTYPE svg PUBLIC "-//W3C//DTD SVG 1.1//EN" "http://www.w3.org/Graphics/SVG/1.1/DTD/svg11.dtd" >
<svg xmlns="http://www.w3.org/2000/svg">
<metadata>
This is a custom SVG webfont generated by Font Squirrel.
Copyright   : Copyright c 1997 Adobe Systems Incorporated  All Rights ReservedWendy is a trademark of LetterPerfect Design
Foundry     : Adobe Systems Incorporated
</metadata>
<defs>
<font id="WendyLPBold" horiz-adv-x="408" >
<font-face units-per-em="1000" ascent="800" descent="-200" />
<missing-glyph horiz-adv-x="260" />
<glyph unicode=" "  horiz-adv-x="260" />
<glyph unicode="&#x09;" horiz-adv-x="260" />
<glyph unicode="&#xa0;" horiz-adv-x="260" />
<glyph unicode="!" horiz-adv-x="234" d="M153 588v-7q0 -44 -8.5 -131.5t-8.5 -132.5q0 -122 9 -144q7 -7 7 -14q0 -10 -9.5 -17.5t-19.5 -7.5t-17.5 5.5t-11.5 16.5t-6.5 22.5t-3.5 27.5t-1 26t0.5 24.5t0.5 18.5q0 130 12 300q1 14 10 24t23 10q9 0 16.5 -6t7.5 -15zM164 48q0 -20 -15 -39.5t-34 -19.5 q-15 0 -27.5 11.5t-12.5 26.5q0 16 18.5 37t34.5 21q14 0 25 -11.5t11 -25.5z" />
<glyph unicode="&#x22;" horiz-adv-x="168" d="M178 547q0 -20 -13 -103q-6 -32 -27 -32q-10 0 -16 8t-6 19q0 52 10 110q5 25 29 25q23 0 23 -27zM76 549q0 -138 -33 -138q-23 0 -23 30q0 61 4 106q1 11 9.5 19.5t19.5 8.5q23 0 23 -26z" />
<glyph unicode="#" horiz-adv-x="601" d="M214 283h-25q-52 0 -89 -9q-8 -2 -11 -2q-11 0 -19.5 7.5t-8.5 18.5q0 10 6.5 17t19 11t25.5 6t31 2h29q12 0 27 -1t18 -1q6 66 20 104q8 21 31 21q11 0 18.5 -6.5t7.5 -17.5q0 -12 -11.5 -51t-13.5 -53l55 -3q36 -2 55 -2q0 3 0.5 13t1 16.5t1.5 18t2.5 20t4 18.5 t6 17.5t8 14t11 9.5t13.5 3q11 0 18 -7t7 -17q0 -19 -10.5 -55t-11.5 -52q68 2 99 14q7 3 15 3q12 0 19.5 -8t7.5 -20q0 -24 -23 -29q-39 -8 -121 -8q-3 -76 -3 -77h47q90 0 90 -35q0 -11 -8.5 -18.5t-19.5 -7.5q-4 0 -12 2q-32 9 -101 9q-5 -64 -21 -108q-8 -21 -31 -21 q-11 0 -18.5 6.5t-7.5 17.5q0 7 5 17q17 27 21 86l-111 -4q0 -1 -0.5 -12.5t-1 -16t-1.5 -16.5t-3 -18.5t-4.5 -17t-6.5 -16.5l-7 -11q-4 -6 -10.5 -9t-13.5 -3q-11 0 -18 7t-7 17q0 6 4 14q11 25 17 80q-102 0 -133 8q-22 6 -22 30q0 12 7.5 19.5t19.5 7.5q9 0 16 -4 q30 -12 106 -12h10q1 15 2.5 47t2.5 47zM264 280l-4 -89q18 1 55 2.5t56 2.5q3 26 5 79l-56 3q-38 2 -56 2z" />
<glyph unicode="$" horiz-adv-x="325" d="M129 177v48q-108 3 -108 54q0 13 9.5 24.5t22.5 11.5t21.5 -9.5t9.5 -22.5q15 -8 50 -8q0 33 1 49q-1 0 -13.5 3t-18 4.5t-17 5t-17.5 7.5l-13 9q-8 5 -11 12t-3 15q0 27 33.5 49t67.5 30q-1 9 -1 26q0 55 32 55q25 0 25 -41q0 -12 -2 -36q28 -3 56.5 -19t28.5 -40 q0 -12 -8.5 -21.5t-20.5 -9.5t-27.5 16.5t-30.5 19.5q-3 -23 -3 -46l14 -5q14 -4 19 -6l18 -8q13 -5 19 -10l14 -10q8 -6 11.5 -13.5t3.5 -15.5q0 -56 -107 -68q-1 -21 0 -58t1 -49t-9 -19.5t-21 -7.5q-29 0 -29 31q0 8 1.5 26t1.5 27zM139 376l2 32q-32 -10 -40 -20 q2 -1 38 -12zM188 307q0 -10 -2 -32q30 2 46 12q-20 14 -44 20z" />
<glyph unicode="%" horiz-adv-x="520" d="M473 148q0 -52 -43 -96t-95 -44q-29 0 -44.5 16t-15.5 45q0 50 39 95.5t88 45.5q30 0 50.5 -16.5t20.5 -45.5zM366 413q0 -21 -12 -50.5t-23.5 -48.5t-35 -53t-27.5 -41q-92 -142 -92 -186q0 -8 15 -14t15 -21q0 -13 -10.5 -22.5t-23.5 -9.5q-24 0 -35.5 19.5t-11.5 45.5 q0 42 29 99t64 103.5t64 96t29 77.5q0 25 -23.5 33.5t-50.5 5.5t-47 0q-9 -42 -46.5 -88t-76.5 -46q-22 0 -33 15.5t-11 38.5q0 49 39.5 109.5t84.5 60.5q42 0 51 -41q0 -1 46 -1q22 0 36.5 -1t32.5 -5.5t28 -13t17.5 -24.5t7.5 -38zM138 460q0 12 -7 12q-15 0 -36.5 -39 t-21.5 -56q0 -3 3 -6h2q17 0 38.5 35.5t21.5 53.5zM414 134q0 23 -25 23q-22 0 -39 -28t-17 -51q0 -22 17 -22q25 0 44.5 26.5t19.5 51.5z" />
<glyph unicode="&#x26;" horiz-adv-x="639" d="M633 73q0 -38 -76 -75q27 -10 27 -31q0 -12 -9.5 -19.5t-21.5 -7.5q-18 0 -62 35l-7 -2q-124 -21 -173 -21q-185 0 -256 91q-23 30 -23 63q0 32 19 61t51.5 51t61 37t60.5 27v7q0 7 -1.5 20.5t-1.5 20.5q0 48 10.5 94t32 88.5t61 68.5t90.5 26q43 0 71.5 -21.5 t28.5 -63.5q0 -48 -42 -105.5t-90 -97.5t-95 -69q22 -43 101.5 -131t111.5 -88q10 0 32.5 15.5t31.5 25.5q-7 3 -27.5 5t-34 8t-13.5 20q0 24 48 24q35 0 65 -12.5t30 -43.5zM458 518q0 35 -42 35t-71.5 -21.5t-44 -57.5t-20 -71t-5.5 -75v-20q58 35 120.5 99t62.5 111z M431 16q-119 94 -192 212q-29 -12 -57.5 -27.5t-59 -43t-30.5 -52.5q0 -6 4 -18q23 -47 85.5 -65t130.5 -18q60 0 119 12z" />
<glyph unicode="'" horiz-adv-x="115" d="M82 547q0 -20 -13 -103q-6 -32 -27 -32q-10 0 -16 8.5t-6 19.5q0 48 11 109q5 25 28 25t23 -27z" />
<glyph unicode="(" horiz-adv-x="341" d="M367 648q0 -14 -15 -23q-79 -42 -89 -49q-94 -63 -148 -159t-54 -207q0 -234 209 -327q3 -1 17 -6.5t24 -10t19.5 -11.5t9.5 -14q0 -22 -30 -22q-26 0 -72 19q-104 44 -165.5 148.5t-61.5 221.5q0 154 88.5 273.5t235.5 187.5q6 2 9 2q8 0 15.5 -7.5t7.5 -15.5z" />
<glyph unicode=")" horiz-adv-x="341" d="M276 269q0 -154 -88.5 -273.5t-235.5 -187.5q-6 -2 -9 -2q-9 0 -16 7.5t-7 15.5q0 15 15 23q79 42 89 49q94 63 148 159t54 207q0 234 -209 327q-3 1 -17 6.5t-24 10t-19.5 11.5t-9.5 14q0 22 30 22q26 0 72 -19q104 -44 165.5 -148.5t61.5 -221.5z" />
<glyph unicode="*" horiz-adv-x="177" d="M157 497q0 -17 -30 -30q22 -15 22 -29q0 -10 -6.5 -16t-16.5 -6q-11 0 -28 13q-5 -36 -26 -36q-27 0 -22 42q-16 -7 -24 -7q-10 0 -17 7t-7 17q0 17 28 27q-21 19 -21 31q0 10 6.5 16.5t16.5 6.5q8 0 27 -14q4 38 29 38q17 0 20.5 -16.5t-0.5 -29.5q16 8 25 8t16.5 -6.5 t7.5 -15.5z" />
<glyph unicode="+" d="M343 187q0 -8 -8 -8h-113v-116q0 -8 -8 -8h-36q-8 0 -8 8v116h-112q-8 0 -8 8v33q0 8 8 8h112v116q0 8 8 8h36q8 0 8 -8v-116h113q8 0 8 -8v-33z" />
<glyph unicode="," horiz-adv-x="163" d="M129 120q0 -17 -20 -77.5t-31 -85.5q-10 -23 -28 -23q-9 0 -15.5 7.5t-6.5 17.5l53 167q5 19 23 19q11 0 18 -7t7 -18z" />
<glyph unicode="-" horiz-adv-x="295" d="M211 191q51 0 51 -27q0 -28 -30 -28q-6 0 -20 2t-20 2q-17 0 -50.5 -4t-51.5 -4q-49 0 -49 28q0 14 9.5 26t22.5 12q15 0 22 -13q4 -1 12 -1q17 0 52 3.5t52 3.5z" />
<glyph unicode="." horiz-adv-x="163" d="M133 37q0 -21 -23.5 -39.5t-44.5 -18.5q-15 0 -25.5 10t-10.5 25q0 16 15 35.5t30 19.5q6 0 11 -3q10 2 15 2q14 0 23.5 -8.5t9.5 -22.5z" />
<glyph unicode="/" horiz-adv-x="394" d="M475 593q0 -6 -6 -17.5t-16 -26t-19 -25.5l-19 -25q-11 -14 -12 -15q-13 -17 -94 -116l-109 -137q-29 -37 -82 -112.5t-91 -139.5l-9 -19q-9 -17 -14 -24t-15 -15t-20 -8q-23 0 -23 23q0 24 105 169.5t164 218.5l132 164q50 65 61 86q1 1 2.5 5t2.5 5.5t3 5.5l3 6 q1 2 3.5 5t4 4.5t4.5 3.5t5.5 3t5.5 2t7 1q9 0 17.5 -6.5t8.5 -15.5z" />
<glyph unicode="0" horiz-adv-x="527" d="M482 261q0 -113 -72.5 -194t-184.5 -81q-88 0 -152.5 75t-64.5 165q0 119 76 212t193 93q71 0 119 -41.5t67 -100t19 -128.5zM430 257q0 85 -41.5 152t-121.5 67q-88 0 -148.5 -77.5t-60.5 -168.5q0 -69 54 -131t122 -62q91 0 143.5 63.5t52.5 156.5z" />
<glyph unicode="1" horiz-adv-x="192" d="M147 514q0 -18 -2 -39t-5.5 -47.5t-4.5 -39.5q-16 -149 -16 -253v-15q0 -74 14 -94q9 -13 9 -21q0 -12 -9 -21t-20 -9q-49 0 -49 147q0 95 19 317q-12 -18 -27 -18q-12 0 -20 9t-8 22q0 17 37 57.5t53 40.5q29 0 29 -36z" />
<glyph unicode="2" horiz-adv-x="549" d="M541 33q0 -20 -26.5 -33t-48.5 -13q-24 0 -46 6q-131 30 -187 30q-81 0 -140 -29q-36 -18 -58 -18q-29 0 -29 28q0 23 26 35t62.5 20t47.5 15q39 25 79.5 56.5t87.5 74.5t76.5 90t29.5 87q0 47 -36.5 76t-84.5 29q-56 0 -129.5 -31t-94.5 -75q-11 -24 -30 -24 q-12 0 -21 10.5t-9 22.5q0 9 8 23q39 54 126.5 92.5t157.5 38.5t121.5 -43.5t51.5 -111.5q0 -43 -24.5 -89.5t-67.5 -90.5t-77.5 -73t-78.5 -62q67 0 229 -32q12 -2 16 -2q9 0 25 7t24 7q20 0 20 -21z" />
<glyph unicode="3" horiz-adv-x="551" d="M513 198q0 -64 -57 -122.5t-131.5 -89.5t-136.5 -31q-49 0 -111 25t-62 66q0 25 22 37.5t48 12.5q68 0 68 -32q0 -21 -24 -21q-5 0 -14 1t-13 1q-15 0 -21 -7h2q14 -17 52 -25.5t68 -8.5q46 0 103.5 24.5t101.5 69t44 92.5q0 35 -24 56t-60 25q-117 -57 -160 -57 q-19 0 -34.5 12t-15.5 31q0 25 26 42.5t61 23t71 8t55 -0.5q62 44 62 89q0 26 -24 43.5t-51 23t-53 5.5q-50 0 -137 -24.5t-112 -54.5q2 -3 8 -8t9 -9.5t3 -10.5q0 -21 -23 -21q-22 0 -45.5 13.5t-23.5 34.5q0 33 69.5 66t144 50t110.5 17q40 0 79.5 -11t72 -39.5 t32.5 -69.5q0 -56 -60 -112q81 -38 81 -114z" />
<glyph unicode="4" horiz-adv-x="509" d="M464 205q0 -10 -5.5 -16.5t-16 -10t-19 -5.5t-21.5 -3t-17 -2q-1 -31 -1 -184q0 -50 -34 -50q-16 0 -26 12t-10 28q0 14 10 27q3 18 4 44.5t0 66t-1 47.5q-95 -18 -162 -18q-158 0 -158 90q0 19 6 35q11 31 80.5 102.5t149 132t110.5 60.5q21 0 32.5 -13.5t11.5 -34.5 q0 -58 -4.5 -167t-5.5 -128q7 2 24 9.5t26 7.5q12 0 19.5 -8.5t7.5 -21.5zM336 496q-64 -30 -168 -120.5t-104 -139.5q0 -46 111 -46q67 0 152 19q6 145 9 287z" />
<glyph unicode="5" horiz-adv-x="530" d="M422 554h7q11 0 18 -7t7 -18q0 -23 -26 -32q-32 -9 -182 -9q-52 0 -77 3q0 -101 -19 -162q57 31 120 31q50 0 98.5 -18.5t83.5 -58t35 -91.5q0 -86 -84 -150t-173 -64q-42 0 -102.5 20.5t-60.5 52.5q0 14 10.5 22.5t24.5 8.5q12 0 31 -13.5t46.5 -27t61.5 -13.5 q66 0 127.5 47.5t61.5 111.5q0 58 -52 91t-113 33q-76 0 -149 -68q-9 -9 -18.5 -32.5t-21 -39.5t-30.5 -16q-28 0 -28 30q0 19 8.5 32.5t22.5 28t20 25.5q47 82 47 188q0 11 -2.5 33t-2.5 32q0 13 9 23t21 10l15 -3q31 -13 116 -13q79 0 150 13z" />
<glyph unicode="6" horiz-adv-x="540" d="M502 154q0 -56 -41 -98t-95.5 -60.5t-108.5 -18.5q-61 0 -118.5 20.5t-99 67t-41.5 109.5q0 114 63.5 217.5t166.5 146.5q44 18 87 18q39 0 81.5 -19.5t42.5 -53.5q0 -12 -8.5 -19.5t-20.5 -7.5q-14 0 -23 7t-15 15t-23.5 15t-45.5 7q-82 0 -146.5 -67t-87.5 -152 q86 33 170 33q41 0 83 -8t84.5 -25t69 -50t26.5 -77zM443 150q0 40 -38 67.5t-80.5 37.5t-80.5 10q-43 0 -104 -13t-82 -35q-4 -20 -4 -31q0 -77 61 -119.5t141 -42.5q62 0 124.5 34.5t62.5 91.5z" />
<glyph unicode="7" horiz-adv-x="510" d="M491 479q0 -13 -10 -23q-149 -189 -213 -436q-7 -29 -33 -29q-12 0 -22 8.5t-10 20.5q0 4 2 12q54 172 195 411q-146 -25 -248 -25q-22 0 -46 2t-56 8t-52.5 20t-20.5 35q0 13 10 21.5t23 8.5q14 0 27 -13q35 -32 132 -32t283 36q6 1 10 1q29 0 29 -26z" />
<glyph unicode="8" horiz-adv-x="539" d="M541 428q0 -7 -5.5 -16t-16 -18t-22.5 -18t-29 -19l-30 -18q-13 -8 -32 -18l-28 -14l-25 -13l-17 -8q147 -68 147 -153q0 -38 -28 -69t-70.5 -48t-84.5 -26t-77 -9q-37 0 -81.5 10t-84.5 37t-40 65q0 74 192 182q-3 1 -23 7t-29 9.5t-30.5 10.5t-34.5 13l-30 15 q-18 9 -29 18t-22 19.5t-16 22.5t-5 25q0 41 50 89q41 39 111.5 58t140.5 19t138 -20t95 -67l5 -15q0 -10 -8 -15q19 -16 19 -36zM472 423h-20q-35 0 -35 27q0 18 16 25t36 6q-77 52 -176 52q-65 0 -138 -23t-101 -68q-9 -16 -9 -24q0 -23 96 -63.5t133 -44.5 q160 78 198 113zM426 129q0 38 -49.5 71t-102.5 52q-197 -111 -197 -159q0 -30 58 -47t100 -17q23 0 53.5 6t62.5 17t53.5 31.5t21.5 45.5z" />
<glyph unicode="9" horiz-adv-x="527" d="M501 357q0 -71 -32.5 -155.5t-96.5 -149.5t-138 -65q-26 0 -58.5 16t-32.5 40q0 13 11.5 22t25.5 9q15 0 28 -8.5t12 -22.5q12 -6 26 -6q51 0 100 60.5t72 120.5q21 54 24 103q-54 -54 -124 -86.5t-143 -32.5q-68 0 -118 32.5t-50 96.5t47 127.5t116.5 102t132.5 38.5 q90 0 144 -74.5t54 -167.5zM439 402q-14 62 -47.5 105t-89.5 43q-73 0 -154.5 -68.5t-81.5 -139.5q0 -47 33.5 -69t83.5 -22q70 0 133 33.5t98 91.5q12 20 25 26z" />
<glyph unicode=":" horiz-adv-x="193" d="M153 237q0 -19 -24.5 -38t-44.5 -19q-13 0 -21 8t-8 21q0 20 19.5 41.5t38.5 21.5q14 0 27 -10.5t13 -24.5zM159 41q0 -19 -24.5 -35.5t-44.5 -16.5q-14 0 -24.5 10t-10.5 23q0 18 18.5 35t36.5 17q15 0 32 -9.5t17 -23.5z" />
<glyph unicode=";" horiz-adv-x="193" d="M162 227q0 -21 -24 -36.5t-46 -15.5q-14 0 -23 8.5t-9 21.5q0 22 20.5 38.5t43.5 16.5q15 0 26.5 -9t11.5 -24zM143 87q0 -24 -56 -146q-10 -21 -26 -21q-10 0 -16.5 8t-6.5 18q0 4 13 36l27 68l18 44q5 17 23 17q10 0 17 -7t7 -17z" />
<glyph unicode="&#x3c;" d="M340 56q0 -8 -7 -8q-3 0 -132 58.5t-149 68.5l-5 7v40l5 7q27 13 152 69.5t129 56.5q7 0 7 -8v-36l-5 -7l-224 -102l224 -103l5 -7v-36z" />
<glyph unicode="=" d="M353 241q0 -8 -8 -8h-307q-8 0 -8 8v33q0 8 8 8h307q8 0 8 -8v-33zM353 129q0 -8 -8 -8h-307q-8 0 -8 8v33q0 8 8 8h307q8 0 8 -8v-33z" />
<glyph unicode="&#x3e;" d="M368 182l-5 -7l-154 -71q-123 -56 -127 -56q-7 0 -7 8v36l5 7l225 103l-225 102l-5 7v36q0 8 7 8q4 0 281 -126l5 -7v-40z" />
<glyph unicode="?" horiz-adv-x="438" d="M475 473q0 -34 -27.5 -71.5t-68 -70.5t-82.5 -63.5t-76 -60.5t-42 -52q14 1 43 8.5t44 7.5q24 0 24 -25q0 -14 -8.5 -25t-22.5 -11q-3 0 -11 1.5t-11 1.5q-9 0 -28 -4.5t-29 -4.5q-24 0 -41.5 10.5t-17.5 33.5q0 25 30.5 57t74.5 65l87 65q43 33 73.5 68.5t30.5 64.5 q0 30 -33 41.5t-71 11.5q-52 0 -121.5 -19t-109.5 -47q-16 -12 -16 -18q0 -16 28 -16q6 0 19 2t19 2q28 0 28 -20q0 -29 -74 -29q-28 0 -53 17t-25 43q0 32 38.5 58.5t92 41.5t102 23t78.5 8q26 0 50.5 -4t49.5 -13.5t40.5 -29t15.5 -47.5zM221 33q0 -22 -15.5 -36 t-37.5 -14q-14 0 -28 10t-14 23t4.5 21t8.5 10.5t17 7t18 6.5q10 5 19 5q13 0 20.5 -9.5t7.5 -23.5z" />
<glyph unicode="@" horiz-adv-x="684" d="M652 312q0 -93 -53.5 -171.5t-137.5 -121.5t-176 -43q-115 0 -201.5 78t-86.5 192q0 83 50 166q-4 5 -4 13q0 15 15 28q50 52 137 84t165 32q117 0 204.5 -71.5t87.5 -185.5zM601 304q0 58 -29.5 106t-81.5 76q-7 -15 -23 -15q-5 0 -48.5 20t-83.5 20q-110 0 -198.5 -74 t-88.5 -182q0 -103 76.5 -164t181.5 -61q113 0 204 81.5t91 192.5zM540 280q0 -3 -2 -9q-17 -50 -55 -87.5t-85 -37.5q-55 0 -78 54q-48 -59 -105 -59q-37 0 -62.5 25.5t-25.5 62.5q0 58 67 127.5t125 69.5q21 0 41 -13t20 -33q0 -12 -6 -19q2 -5 2 -15q0 -15 -7 -45t-7 -46 q0 -22 11 -42t31 -20q40 0 95 94q6 14 20 14q8 0 14.5 -6t6.5 -15zM329 366q-9 6 -21 6q-38 0 -82.5 -52t-44.5 -91q0 -37 41 -37q30 0 57 31.5t32 64.5q1 5 1.5 18.5t1.5 22.5t5 20t10 17z" />
<glyph unicode="A" horiz-adv-x="767" d="M770 13q0 -24 -30 -24q-66 0 -127.5 33t-106.5 87q-3 1 -10 1q-14 0 -39.5 -2t-34.5 -2q-75 -3 -152 -3h-35q-173 -198 -220 -198q-14 0 -26 9t-12 23q0 16 13 24.5t30 6.5q63 42 150 135q-201 0 -201 53q0 10 8 18t19 8q7 0 15 -4q63 -24 206 -24q83 97 177 242 q-6 58 -6 87q0 22 4.5 53t14 65.5t28 58.5t42.5 24q48 0 48 -78q0 -79 -76 -211q26 -141 89 -232q100 6 158 19q1 0 3.5 0.5t3.5 0.5q10 0 16.5 -7.5t6.5 -17.5q0 -21 -19 -29q-6 -2 -63.5 -6t-68.5 -6q63 -55 132 -71q7 -2 20 -3t19 -3q24 -5 24 -27zM473 599q0 14 -3 21 q-17 -18 -26.5 -60t-6.5 -71l1 -12q35 77 35 122zM473 161q-42 80 -65 169q-49 -74 -129 -176q107 2 194 7z" />
<glyph unicode="B" horiz-adv-x="716" d="M728 469q0 -52 -56 -97.5t-122 -73.5q40 -17 62 -51.5t22 -77.5q0 -85 -79 -142.5t-167 -57.5q-33 0 -78.5 14.5t-66.5 34.5v-13q0 -14 -8 -26t-21 -12q-21 0 -27 32q-10 51 -10 211q-25 9 -25 33q0 26 31 43q2 19 5.5 65.5t7 83t8.5 62.5q4 15 11 21q-152 -33 -238 -83 v-3q0 -39 -32 -39q-19 0 -33.5 10.5t-14.5 29.5q0 31 37 49q105 52 247.5 81.5t267.5 29.5q32 0 61 -1.5t71.5 -9t72.5 -19.5t52 -36.5t22 -57.5zM669 465q0 25 -24.5 43t-62.5 25.5t-67.5 10.5t-55.5 3q-105 0 -222 -24q15 -6 15 -25q0 -17 -11 -193q63 16 160 16 q50 0 74 -4q194 79 194 148zM576 164q0 45 -29.5 72t-75.5 30q-15 -4 -71 -22t-91.5 -26.5t-73.5 -12.5v-27q0 -46 5 -104q10 6 23 6q23 0 30.5 -6t17.5 -29q6 -13 35.5 -20.5t49.5 -7.5q64 0 122 42.5t58 104.5z" />
<glyph unicode="C" horiz-adv-x="654" d="M642 85q0 -15 -15 -26q-59 -40 -143.5 -64t-158.5 -24q-54 0 -111.5 15.5t-109.5 44t-85 76.5t-33 107q0 112 95.5 224.5t206.5 140.5q24 36 45 36q10 0 17 -7.5t7 -18.5q67 -2 107 -36t40 -99q0 -73 -49.5 -128t-121.5 -55q-53 0 -82 34t-29 88q0 56 29 119 q-80 -37 -143 -122t-63 -169q0 -65 48 -113t111 -69t125 -21q129 0 275 86q8 5 15 5q10 0 16.5 -7t6.5 -17zM448 451q0 41 -27 63.5t-68 22.5q-8 0 -26 -2q-53 -77 -53 -136q0 -34 19 -57t52 -23q41 0 72 44.5t31 87.5z" />
<glyph unicode="D" horiz-adv-x="775" d="M739 266q0 -48 -26.5 -89.5t-69.5 -70t-87 -47.5t-90 -30q-92 -23 -207 -25q1 -4 1 -12q0 -14 -7.5 -24.5t-20.5 -10.5q-18 0 -28 15.5t-13 34.5q-49 7 -99.5 32t-50.5 65q0 28 34 28q17 0 28 -9.5t16 -21t22 -23.5t44 -16q-6 74 -6 112q0 135 38 267q-21 -3 -51 -10.5 t-71.5 -20.5t-69.5 -32.5t-28 -39.5q0 -21 31.5 -26t62.5 -9t31 -24q0 -24 -49 -24q-30 0 -58.5 5.5t-54.5 24.5t-26 49q0 37 35 67t88.5 48t96 28t78.5 14q20 59 48 59q13 0 20.5 -11t7.5 -24q0 -6 -2 -18q47 -1 97 -7t112.5 -22.5t110 -40.5t80.5 -66t33 -95zM687 261 q0 52 -45 90.5t-113 56.5t-127.5 26t-109.5 8q-13 0 -19 -1q-19 -34 -30 -114t-11 -138q0 -106 13 -132q11 -1 31 -1q110 0 215 28.5t162 95.5q34 41 34 81z" />
<glyph unicode="E" horiz-adv-x="687" d="M663 85q0 -31 -95 -57.5t-190 -38.5t-137 -12q-256 0 -256 105q0 33 22 65t57.5 56.5t68.5 41t65 28.5q-30 8 -58.5 19.5t-61.5 29.5t-53 44t-20 56q0 42 35.5 73.5t89.5 46.5t101.5 21.5t87.5 6.5q95 0 181.5 -26.5t132.5 -88.5q8 -12 8 -21q0 -18 -18 -27t-37 -9 q-35 0 -35 22q0 12 11 17q-30 44 -104 63.5t-144 19.5q-56 0 -117.5 -12t-96.5 -38q-36 -26 -36 -49q0 -24 28 -46.5t70.5 -37.5t75 -24t57.5 -14q49 9 83 9q81 0 81 -37q0 -14 -11 -21.5t-25 -7.5q-15 0 -46 3t-46 3t-22 -1q-53 -6 -104 -24q-29 -10 -62 -27.5t-65 -46.5 t-32 -56q0 -26 46 -43t87.5 -21t73.5 -4q167 0 377 80q8 2 11 2q9 0 15.5 -6.5t6.5 -15.5z" />
<glyph unicode="F" horiz-adv-x="663" d="M750 525q0 -30 -17 -56.5t-45 -26.5q-12 0 -21.5 7.5t-9.5 19.5t20.5 29.5t20.5 33.5q0 27 -34.5 40.5t-67.5 13.5q-23 0 -52.5 -5t-53 -11t-59 -18t-53.5 -19l-57 -22l-48 -18q-21 -61 -21 -109q0 -39 13 -102q12 1 135.5 13t187.5 12h8q42 0 42 -29q0 -14 -14 -25.5 t-29 -11.5q-7 0 -21 4.5t-22 4.5q-54 0 -275 -17q21 -86 21 -112q0 -69 -51 -100t-125 -31q-34 0 -70 10t-36 35q0 12 11.5 22t23.5 10q6 0 24 -10q21 -14 72 -14q96 0 96 68q0 33 -25 117q-10 -1 -69.5 -5.5t-90.5 -4.5q-89 0 -89 39q0 15 11 23t27 9q54 3 109 3 q19 0 26 -18q32 0 64 3q-10 58 -10 106q0 46 10 86q-110 -33 -165 -33q-33 0 -60 15t-27 46q0 13 7 23t20 10q11 0 17 -6t9 -13.5t15.5 -13.5t34.5 -6q60 0 169 37q25 70 57 70q9 0 16 -6.5t7 -15.5q0 -6 -6 -18q204 81 296 81q57 0 105.5 -30t48.5 -84z" />
<glyph unicode="G" horiz-adv-x="764" d="M717 71q31 0 31 -22q0 -12 -9.5 -19.5t-21.5 -7.5q-25 0 -79 -20t-81 -36q41 -86 41 -149q0 -72 -41.5 -120t-112.5 -48q-51 0 -79.5 34.5t-28.5 86.5q0 113 148 208l-26 48q-131 -57 -217 -57q-56 0 -108.5 16t-92.5 56t-40 97q0 50 32 95q74 104 209.5 165.5 t270.5 61.5q160 0 160 -72q0 -34 -41 -65q31 -22 31 -62q0 -27 -8.5 -50.5t-28.5 -47t-33.5 -37t-43.5 -38t-38 -32.5l12 -24q8 -16 13 -23q119 62 182 62zM433 70l1 3q-25 50 -25 103q0 64 31 102q-8 6 -8 18q0 11 9 17.5t20 6.5q32 0 93 18.5t61 42.5q0 15 -40.5 22 t-69.5 7q-51 0 -124.5 -20t-145.5 -53.5t-122.5 -85.5t-50.5 -108q0 -43 31.5 -72.5t70.5 -40t82 -10.5q95 0 187 50zM465 191q0 -37 22 -87q44 26 79.5 64.5t35.5 78.5q0 14 -9.5 28t-23.5 14q-39 0 -71.5 -30t-32.5 -68zM455 -303q41 0 64 32t23 75q0 56 -35 132 q-46 -29 -80.5 -72.5t-34.5 -88.5q0 -31 16.5 -54.5t46.5 -23.5z" />
<glyph unicode="H" horiz-adv-x="743" d="M730 243q0 -12 -9 -22t-21 -10q-10 0 -30 10.5t-38 10.5q-16 0 -44 -6q-1 -14 -1 -42q0 -59 7 -107q0 -3 2 -12t2 -14q0 -14 -9.5 -26t-23.5 -12q-8 0 -13.5 2t-9 7t-5.5 9t-2.5 11.5t-0.5 12.5v13v10l-3 141q-206 -45 -356 -45q0 -20 0.5 -59t0.5 -59q0 -3 1 -19 t0.5 -27t-2.5 -25t-8 -21.5t-16 -7.5q-12 0 -20.5 9t-8.5 21q0 146 -3 194q-31 4 -60.5 11.5t-61.5 22t-51.5 39.5t-19.5 57q0 27 17.5 54.5t43.5 27.5q12 0 21.5 -9t9.5 -21q0 -13 -17.5 -24.5t-17.5 -27.5q0 -31 46.5 -52t88.5 -27q0 67 7.5 180t20.5 136q9 16 28 16 q26 0 26 -39q0 -17 -2 -26q-26 -154 -26 -229q0 -28 1 -43q36 -2 56 -2q158 0 305 47q1 9 3 74t5 114.5t11.5 101t20.5 63.5q9 11 24 11q11 0 19 -8.5t8 -19.5q0 -6 -8.5 -23.5t-9.5 -24.5q-12 -55 -19 -279q35 7 59 7q18 0 34.5 -3t32.5 -13.5t16 -27.5z" />
<glyph unicode="I" horiz-adv-x="459" d="M448 544q0 -11 -9 -19.5t-20 -8.5t-33 6.5t-35 6.5q-39 0 -71 -4q-36 -157 -36 -335q0 -67 7 -123q46 7 100 7q75 0 75 -32q0 -12 -10.5 -21t-22.5 -9q-13 0 -37 5t-36 5q-29 0 -56 -6q0 -24 -32 -24q-21 0 -28 15q-95 -31 -146 -31q-70 0 -70 55q0 37 25 37 q11 0 16.5 -6.5t7 -14.5t10.5 -14.5t25 -6.5q24 0 119 27q-5 55 -5 99q0 116 37 367q-59 -8 -112 -8q-88 0 -88 38q0 15 16.5 28.5t31.5 13.5q12 0 18 -8t3 -19q11 -3 34 -3q43 0 106 9q8 56 37 56q22 0 22 -25q0 -7 -2 -25q36 4 83 4q76 0 76 -36z" />
<glyph unicode="J" horiz-adv-x="541" d="M581 341q0 -15 -17 -25q-8 -5 -24.5 -11.5t-20.5 -8.5q-37 -18 -79 -42q5 -53 5 -98q0 -67 -13 -125t-40.5 -109.5t-79.5 -81.5t-122 -30q-47 0 -80.5 24.5t-33.5 69.5q0 47 30 101.5t78 104t92.5 87t88.5 68.5q-45 3 -94 10.5t-113 25t-113 41t-83 62.5t-34 87 q0 69 58 106t131 37q188 0 271 -182q35 -77 46 -143q2 1 20.5 11t28 14.5t26 11.5t29 10.5t22.5 3.5q21 0 21 -19zM373 320q-26 112 -89.5 186t-168.5 74q-50 0 -90 -23t-40 -70q0 -15 8 -29q44 -69 156 -101.5t224 -36.5zM394 128q0 40 -7 92q-48 -33 -101 -79.5 t-104 -112.5t-51 -113q0 -28 25 -43t55 -15t68 18q62 32 88.5 101.5t26.5 151.5z" />
<glyph unicode="K" horiz-adv-x="611" d="M634 -1q0 -33 -82 -33q-65 0 -115.5 17.5t-78.5 43t-53.5 56t-43.5 56t-45 43t-61 17.5q-17 0 -39 -5q-8 -139 -8 -155q0 -61 4 -76q11 -6 11 -21t-13.5 -25.5t-28.5 -10.5q-14 0 -21.5 9.5t-7.5 23.5q0 60 9 238q-46 -12 -58 -12q-29 0 -29 22q0 30 93 54q18 256 54 326 q17 31 37 31q13 0 23 -8.5t10 -20.5t-13 -25q-39 -41 -58 -291q100 27 226 122.5t171 184.5q11 21 29 21q11 0 20.5 -8.5t9.5 -19.5q0 -7 -3 -14q-26 -67 -144.5 -160t-206.5 -137q29 -12 54 -34.5t42 -46.5t39.5 -50.5t45 -47t59.5 -33.5t83 -13q9 0 28.5 3t29.5 3 q31 0 31 -24z" />
<glyph unicode="L" horiz-adv-x="768" d="M756 37q0 -9 -8 -19q-63 -67 -196 -67q-89 0 -201 31q-47 -82 -137 -82q-68 0 -147.5 54t-79.5 118q0 29 19.5 46t49.5 17q31 0 78.5 -15t106.5 -39.5t79 -31.5q8 26 15 57.5t9 52.5l8 60l7 55q-39 8 -75.5 19.5t-76 32t-68 45t-47.5 60t-19 77.5q0 34 18 52t51 18 q24 0 54 -9.5t30 -28.5q0 -22 -30 -22q-8 0 -24 4.5t-25 4.5q-15 0 -15 -19q0 -40 23.5 -73.5t60.5 -55.5t75.5 -35.5t76.5 -19.5q8 35 18.5 69t29 74t41.5 70t56 50t70 20q54 0 97 -41.5t43 -94.5q0 -46 -30 -87.5t-75 -67.5q-79 -48 -204 -48l-12 -72q-9 -54 -16.5 -90.5 t-16.5 -71.5q111 -35 189 -35q46 0 84 15t60.5 30t31.5 15q22 0 22 -22zM664 471q0 34 -24 59.5t-57 25.5q-34 0 -62.5 -26t-47.5 -67.5t-30 -75.5t-18 -68q7 -1 20 -1q48 0 96 15.5t85.5 51.5t37.5 86zM303 0q-9 3 -54 19l-75 27q-30 10 -67 19.5t-55 9.5q-11 0 -11 -8 q12 -42 73.5 -82.5t106.5 -40.5q54 0 82 56z" />
<glyph unicode="M" horiz-adv-x="858" d="M819 10q0 -25 -41 -25q-49 0 -81 35.5t-32 85.5q0 33 5.5 72t11.5 64l18 72l16 66q9 34 9 46q0 22 -15 22q-16 0 -40 -16q-23 -16 -45.5 -40t-37 -42t-35.5 -56l-28 -51l-28 -60q-22 -46 -24 -51q-1 -2 -5.5 -12t-6.5 -14l-7 -14q-5 -9 -8.5 -13.5t-9 -12.5t-10.5 -12 l-11 -9q-6 -4 -13 -6t-14 -2q-48 0 -48 73q0 18 2.5 36.5t7 44t6.5 35.5q18 102 18 155q0 4 -2 10q-35 0 -94 -80.5t-120.5 -186t-77.5 -124.5q-13 -17 -29 -17q-27 0 -27 34q0 18 7.5 49t19.5 69.5t15 50.5q31 124 31 187q0 34 -13 62.5t-42 28.5q-18 0 -39.5 -18 t-31.5 -18q-9 0 -14.5 6.5t-5.5 15.5q0 29 33 50t63 21q54 0 78.5 -42t24.5 -100q0 -25 -2.5 -49.5t-9.5 -57.5t-10 -46t-15.5 -56t-13.5 -48q100 167 155 235q75 92 122 92q54 0 54 -88q0 -43 -18 -125.5t-18 -124.5q0 -3 0.5 -7t0.5 -7l9 14q4 9 22 46l29 61l34 64 q22 41 39 67.5t42 59t47 51.5t48 32.5t51 13.5q66 0 66 -70q0 -17 -3.5 -37t-7.5 -34t-11.5 -37t-10.5 -34q-26 -98 -26 -163q0 -37 18.5 -68.5t53.5 -31.5q25 0 25 -21z" />
<glyph unicode="N" horiz-adv-x="675" d="M694 22q0 -28 -45 -45.5t-79 -17.5q-64 0 -99 43t-35 108q0 45 15.5 134t15.5 134q0 53 -33 53t-72 -34t-72.5 -83.5t-58.5 -93.5t-38 -76q-9 -20 -14.5 -56.5t-9.5 -48.5q-8 -27 -32 -27q-29 0 -29 45q0 46 29.5 159.5t29.5 175.5q0 54 -21 100t-68 46q-27 0 -50.5 -13 t-36.5 -28t-27 -28t-23 -13q-10 0 -16.5 7.5t-6.5 17.5q0 11 6 18q23 36 70.5 63.5t89.5 27.5q69 0 104 -54t35 -126q0 -52 -12 -121q21 33 43.5 63t54 64t67 54.5t68.5 20.5q40 0 61 -32.5t21 -75.5t-17 -127.5t-17 -127.5q0 -48 23 -80.5t69 -32.5q23 0 53 14t36 14 q9 0 15 -6t6 -15z" />
<glyph unicode="O" horiz-adv-x="684" d="M642 312q0 -93 -53.5 -171.5t-137.5 -121.5t-176 -43q-115 0 -201.5 78t-86.5 192q0 83 50 166q-4 5 -4 13q0 15 15 28q50 52 137 84t165 32q117 0 204.5 -71.5t87.5 -185.5zM591 304q0 58 -29.5 106t-81.5 76q-7 -15 -23 -15q-5 0 -48.5 20t-83.5 20q-110 0 -198.5 -74 t-88.5 -182q0 -103 76.5 -164t181.5 -61q113 0 204 81.5t91 192.5z" />
<glyph unicode="P" horiz-adv-x="683" d="M700 448q0 -47 -32 -96q-56 -86 -162.5 -129t-221.5 -43q-46 0 -97 8q-7 -47 -7 -162q0 -41 -27 -41q-30 0 -30 54q0 66 11 165q-71 29 -71 67q0 28 24.5 43.5t56.5 20.5q2 24 8 70t9 83t3 71v7q-114 -30 -179 -78q-32 -27 -33 -34q5 -10 51.5 -20.5t46.5 -30.5 q0 -24 -44 -24q-35 0 -73 18.5t-38 50.5t36 60q87 65 205 98.5t236 33.5q58 0 108 -7q53 -7 100.5 -28t83.5 -62.5t36 -94.5zM312 230q62 0 136.5 23t135 74t60.5 116q0 44 -28.5 75.5t-73.5 46.5t-87 21.5t-83 6.5q-78 0 -165 -18q8 -15 8 -44q0 -37 -8 -104.5t-9 -90.5 q76 -8 76 -36q0 -21 -30 -21q-10 0 -28.5 3.5t-22.5 3.5q-3 -18 -3 -38q58 -18 122 -18zM135 260l2 23q-14 -2 -23 -7q2 -3 21 -16z" />
<glyph unicode="Q" horiz-adv-x="720" d="M695 70q9 0 15.5 -8t6.5 -17q0 -28 -60 -63t-93 -35q-25 0 -49 13t-38.5 27.5t-33.5 38.5q-102 -50 -189 -50q-114 0 -190 75.5t-76 189.5q0 142 111 248t253 106q62 0 115.5 -24.5t75.5 -76.5q103 -56 103 -167q0 -72 -43.5 -148t-106.5 -119q4 -4 15.5 -19t17.5 -21 t18.5 -12.5t26.5 -6.5q29 0 71.5 34.5t49.5 34.5zM236 88l1 5q21 67 115 67q67 0 113 -61q128 99 128 215q0 76 -47 110q-8 -36 -28 -36q-5 0 -8.5 1t-6.5 4l-4 6q-1 2 -1.5 8t-0.5 7v9v7q0 21 -10 28q-38 26 -128 26q-56 0 -100 -15q-6 -2 -10 -2q-9 0 -17 6.5t-8 15.5 q0 24 49 34.5t89 10.5q22 0 64 -4q-36 14 -82 14q-120 0 -211.5 -93t-91.5 -214q0 -91 65.5 -151t157.5 -60q68 0 149 42q-32 41 -78 41q-21 0 -33.5 -11.5t-20.5 -22.5t-18 -11q-11 0 -19 7t-8 17z" />
<glyph unicode="R" horiz-adv-x="744" d="M239 210v-17q21 -11 81 -62q49 13 101.5 34.5t111 54.5t96 79.5t37.5 96.5q0 42 -32 72.5t-81.5 45t-93.5 20.5t-84 6q-98 0 -198 -26.5t-165 -79.5q-42 -33 -42 -55q0 -25 39.5 -35t79.5 -17t40 -25q0 -22 -30 -22q-27 0 -55 4t-60 13.5t-52.5 30.5t-20.5 49q0 43 56 89 q77 61 191 93t224 32q39 0 80.5 -4.5t89.5 -18t85 -34t61.5 -55t24.5 -78.5q0 -46 -25 -89.5t-62 -75.5t-87.5 -61.5t-92.5 -47.5t-86 -33q137 -93 265 -93q18 0 45 5.5t34 5.5q23 0 23 -19q0 -22 -45.5 -31.5t-80.5 -9.5q-141 0 -319 126q-21 -5 -52 -5q0 -14 3.5 -46.5 t3.5 -49.5q0 -13 -8 -21.5t-21 -8.5q-26 0 -31 30q-4 21 -4 100q-32 4 -55.5 22.5t-23.5 48.5q0 29 25 47.5t54 15.5q1 23 5.5 62.5t12 91.5t21.5 88.5t31 36.5q10 0 16.5 -7.5t6.5 -17.5q0 -7 -3 -14q-34 -116 -34 -241zM181 126v30q-6 3 -14 3q-7 0 -15 -3q0 -9 9.5 -17.5 t19.5 -12.5z" />
<glyph unicode="S" horiz-adv-x="655" d="M627 210q0 -25 -22 -54q-67 -84 -191.5 -139.5t-235.5 -55.5q-81 0 -139.5 43t-58.5 121q0 16 7.5 29t22.5 13q24 0 24 -38q0 -58 45.5 -86.5t107.5 -28.5q89 0 199 45t165 108q15 17 15 31q0 18 -18.5 31.5t-37 19t-37.5 8.5q-47 7 -134.5 11t-157.5 15t-129 38 q-81 38 -81 90q0 42 46 73.5t113.5 46t124.5 21.5t98 7q30 0 68 -4.5t83 -15t75 -33t30 -53.5q0 -20 -19 -39t-38 -19q-12 0 -20 7t-8 19q0 10 19 34q-22 30 -84.5 43t-119.5 13q-70 0 -150 -15.5t-130 -44.5q-30 -17 -30 -35q0 -17 25 -33.5t60 -27.5t65 -18.5t48 -9.5 q36 -5 218 -15q28 -2 54 -6.5t58 -15t51 -31.5t19 -49z" />
<glyph unicode="T" horiz-adv-x="532" d="M755 508q0 -11 -9.5 -20.5t-19.5 -9.5q-5 0 -26.5 6t-37.5 6q-35 0 -76.5 -5t-71.5 -11l-77 -16l-72 -16q-4 -39 -7 -83t-4.5 -75t-2.5 -85t-1 -75v-85v-78q0 -14 -9 -25.5t-22 -11.5q-15 0 -26.5 13t-11.5 29q0 7 5 18t5 17q1 12 1 145q2 159 15 286q-106 -18 -195 -18 q-217 0 -217 135q0 35 22 82.5t53 47.5q27 0 27 -37q0 -17 -6.5 -34.5t-21.5 -17.5q-8 0 -12 4q-7 -19 -7 -35q0 -29 19.5 -49t51.5 -29t58.5 -12t55.5 -3q74 0 178 18q0 3 1.5 24t3.5 35t6 32.5t13 28t22 9.5q12 0 21.5 -9t9.5 -21q0 -10 -6 -29t-7 -25q-2 -12 -4 -36 q32 6 96 21.5t115 24.5t97 9q25 0 49.5 -9.5t24.5 -30.5z" />
<glyph unicode="U" horiz-adv-x="686" d="M704 60q0 -30 -44 -52.5t-77 -22.5q-118 0 -124 161q-137 -199 -248 -199q-49 0 -72.5 32.5t-23.5 83.5q0 71 52 203.5t52 184.5q0 25 -20 25q-5 0 -20 -5q-49 -18 -97 -58t-80 -87q8 -4 8 -15q0 -12 -26 -28.5t-40 -16.5q-11 0 -18 8t-7 19v4q0 35 48.5 85.5t106 88.5 t94.5 50q27 9 47 9q30 0 47 -18t17 -48q0 -47 -53 -187t-53 -206q0 -28 12.5 -49.5t38.5 -21.5q36 0 83.5 43t77.5 85t55 83q32 53 36 71q1 4 4.5 24.5t7.5 38.5l10 44q6 25 12.5 45t14 38.5t17 29t18.5 10.5q12 0 20.5 -9.5t8.5 -21.5q0 -48 -37.5 -144t-37.5 -166 q0 -21 3 -41.5t10.5 -42t23.5 -35t38 -13.5q28 0 58.5 22t36.5 22q20 0 20 -23z" />
<glyph unicode="V" horiz-adv-x="730" d="M686 292q0 -22 -7 -50q-13 -51 -37.5 -102t-59 -98.5t-83.5 -77t-102 -29.5q-154 0 -154 229q0 36 6.5 107t6.5 106q0 79 -39 79q-34 0 -94.5 -47t-107.5 -107t-47 -92q0 -6 2 -9q21 -4 21 -21q0 -12 -11 -18t-24 -6q-20 0 -34 11t-14 31q0 34 33 84.5t67 88.5 q47 54 107.5 96t114.5 42q81 0 81 -125q0 -36 -7 -106t-7 -106q0 -185 108 -185q57 0 111.5 52t85 120.5t30.5 124.5q0 48 -21.5 84.5t-63.5 72.5q-10 10 -10 19q0 13 10.5 20.5t23.5 7.5q7 0 15 -5q45 -28 72.5 -82t27.5 -109z" />
<glyph unicode="W" horiz-adv-x="825" d="M783 334q0 -47 -17.5 -106.5t-47 -116t-76 -95t-97.5 -38.5q-62 0 -102.5 53.5t-56.5 122.5q-40 -64 -101.5 -129t-109.5 -65t-72.5 41t-24.5 91q0 51 31.5 147.5t31.5 143.5q0 24 -16.5 41t-41.5 17q-17 0 -35 -8q-75 -36 -75 -129q0 -12 -8.5 -22.5t-19.5 -10.5 q-12 0 -21 10.5t-9 22.5q0 74 52.5 130.5t125.5 56.5q48 0 74.5 -28.5t26.5 -77.5q0 -50 -32 -145.5t-32 -146.5q0 -29 11 -53t36 -24t57 25.5t60.5 65.5t48.5 71.5t34 58.5q1 11 0 31t-1 26q0 23 2.5 53.5t9.5 70t22.5 65.5t37.5 26q34 0 34 -44q0 -41 -24.5 -115.5 t-24.5 -113.5q0 -30 7 -63t21 -65.5t39.5 -53.5t58.5 -21q47 0 88.5 56t62.5 122t21 111q0 37 -11 65t-24 40l-24 24q-11 12 -11 21q0 13 10 20t23 7q30 0 51.5 -32t29.5 -67.5t8 -65.5z" />
<glyph unicode="X" horiz-adv-x="793" d="M766 131q0 -7 -5 -14q-26 -40 -69 -62t-93 -22q-154 0 -247 180q-48 -60 -101 -138.5t-77 -133.5q-14 -29 -37 -29q-11 0 -20 6t-9 16q0 9 7.5 22t19.5 28.5t15 20.5q60 97 106 160q8 11 34 42.5t37 50.5l3 5q-10 37 -48 142q-34 96 -87 96q-30 0 -65 -26.5t-50 -55.5 q16 -5 16 -20q0 -13 -14 -20t-28 -7q-15 0 -25.5 9.5t-10.5 24.5q0 11 7 23q30 49 82.5 86.5t103.5 37.5q26 0 48 -12.5t36 -29.5t27.5 -46t20 -49.5t15.5 -53t13 -44.5l48 58l52 64l44 57q26 34 46 64q6 8 14 23t12 21q10 16 25 16q12 0 21.5 -9t9.5 -21q0 -11 -52 -78 l-127 -159l-74 -90q31 -76 87 -126.5t130 -50.5q32 0 57.5 10.5t38.5 22.5l23 22q11 11 19 11q21 0 21 -22z" />
<glyph unicode="Y" horiz-adv-x="569" d="M580 146q0 -31 -29 -32q-26 -18 -80 -91q1 -32 1 -96q0 -252 -102 -252q-38 0 -57.5 29.5t-19.5 68.5q0 102 125 261q-1 36 -7.5 104t-7.5 99q-55 -65 -129 -113.5t-143 -48.5q-59 0 -93 34.5t-34 93.5q0 74 45.5 180t98.5 168q13 15 29 15q26 0 26 -27 q0 -20 -15.5 -46.5t-34.5 -25.5q-40 -58 -69.5 -126t-29.5 -123q0 -42 23 -67.5t65 -25.5q68 0 141.5 60.5t113.5 130.5q5 8 13.5 59.5t24.5 92.5t43 41q14 0 21.5 -9.5t7.5 -23.5q0 -54 -28 -116q-20 -43 -20 -44q-2 -7 -2 -47q0 -28 10 -173q61 73 84 73q10 0 19.5 -6.5 t9.5 -16.5zM422 -84l-1 38q-76 -108 -76 -181q0 -18 6.5 -35.5t21.5 -17.5q17 0 28 24.5t15 61t5.5 64t0.5 46.5z" />
<glyph unicode="Z" horiz-adv-x="570" d="M611 86q0 -12 -9 -20.5t-21 -8.5q-48 0 -124 -33l1 -4q0 -71 -45.5 -153.5t-119.5 -140.5t-147 -58q-35 0 -57.5 24.5t-22.5 59.5q0 43 36 90.5t92 88t104.5 69t93.5 49.5q-18 64 -109 92q-76 -50 -126 -50q-23 0 -39.5 11t-16.5 33q0 34 38 51t77 17q26 0 58 -5 q47 34 85.5 85t38.5 97q0 58 -50.5 93t-111.5 35q-71 0 -148.5 -43t-102.5 -105q-5 -10 -5 -20q0 -14 25 -14q13 0 38 7.5t38 7.5q21 0 21 -19q0 -20 -40.5 -33.5t-66.5 -13.5q-31 0 -50.5 17.5t-19.5 48.5q0 38 29 74q49 63 129.5 102.5t160.5 39.5q77 0 142.5 -44.5 t65.5 -117.5q0 -99 -120 -213q89 -38 114 -109q94 38 132 38q33 0 33 -25zM400 -2q-35 -17 -75.5 -40.5t-90 -58t-82 -73.5t-32.5 -71q0 -16 9 -26t25 -10q9 0 32 7q83 29 149 109t65 163z" />
<glyph unicode="[" horiz-adv-x="269" d="M251 -115q0 -6 -5 -11t-11 -5h-149q-6 0 -11 5t-5 11v776q0 6 5 11t11 5h149q6 0 9.5 -2t5 -7.5t2 -8t0.5 -10.5l-1 -8q0 -6 -5 -11t-11 -5h-113v-704h113q6 0 9.5 -2t5 -7.5t2 -8t0.5 -10.5z" />
<glyph unicode="\" horiz-adv-x="394" d="M404 -64q0 -10 -6.5 -16.5t-16.5 -6.5q-11 0 -21 8t-14.5 15.5t-12.5 23.5t-10 19q-38 64 -91 139.5t-82 113.5l-109 136q-81 99 -94 116q-72 87 -72 109q0 9 8.5 15.5t17.5 6.5q7 0 12 -2t9.5 -8t6.5 -9t6.5 -12t5.5 -10q14 -28 61 -86l72 -89l61 -75l169 -226 q100 -138 100 -162z" />
<glyph unicode="]" horiz-adv-x="269" d="M145 -115q0 -6 -5 -11t-11 -5h-149q-6 0 -9.5 2t-5 7.5t-2 8t0.5 10.5v8q0 6 5 11t11 5h113v704h-113q-6 0 -9.5 2t-5 7.5t-2 8t0.5 10.5v8q0 6 5 11t11 5h149q6 0 11 -5t5 -11v-776z" />
<glyph unicode="^" d="M202 531q24 0 80 -53t56 -70q0 -25 -21 -25q-6 0 -18 6.5t-28 18.5l-28 22l-28 23q-16 14 -18 16q-3 -2 -21 -15l-32 -23l-32 -22q-18 -12 -31 -19t-18 -7q-22 0 -22 22q0 19 67.5 72.5t93.5 53.5z" />
<glyph unicode="_" horiz-adv-x="500" d="M500 -115h-500v30h500v-30z" />
<glyph unicode="`" horiz-adv-x="250" d="M183 351q0 -10 -6.5 -16t-16.5 -6q-8 0 -29 16.5t-46.5 39t-29.5 25.5q-12 10 -12 24q0 11 6.5 19t17.5 8q8 0 28 -16.5t45.5 -41.5t27.5 -26q15 -13 15 -26z" />
<glyph unicode="a" horiz-adv-x="338" d="M367 161v-6q-6 -52 -45.5 -97t-89.5 -45q-46 0 -73 46q-45 -73 -108 -73q-37 0 -62.5 26t-25.5 63q0 62 58.5 134.5t118.5 72.5q21 0 39 -11.5t18 -30.5q0 -8 -5 -16q7 -7 7 -19q0 -9 -3 -28t-3 -28q0 -18 3 -35.5t13.5 -34t27.5 -16.5q23 0 40 18.5t26 41.5t20.5 41.5 t23.5 18.5q20 0 20 -22zM148 223q-8 5 -18 5q-36 0 -75 -55t-39 -93q0 -18 11 -30t29 -12q32 0 57.5 36t25.5 70q0 6 -1.5 17t-1.5 16q0 29 12 46z" />
<glyph unicode="b" horiz-adv-x="305" d="M336 158q0 -6 -3 -12q-19 -32 -56 -46.5t-76 -8.5q-48 -102 -124 -102q-28 0 -47.5 15.5t-28.5 42t-12.5 50.5t-3.5 51q0 34 11.5 97t31.5 131t53 117.5t69 49.5q33 0 48.5 -29t15.5 -64q0 -74 -53.5 -157t-122.5 -149q0 -33 11.5 -67.5t37.5 -34.5q19 0 39.5 21.5 t29.5 43.5q-32 22 -32 70q0 16 13.5 29t29.5 13q22 0 35.5 -16t13.5 -39q0 -14 -3 -28q4 -1 12 -1q25 0 43 10.5t28.5 21.5t19.5 11q8 0 14 -6t6 -14zM161 448q0 39 -17 40q-34 -22 -63 -113.5t-40 -163.5q49 51 84.5 115t35.5 122z" />
<glyph unicode="c" horiz-adv-x="300" d="M330 155q0 -4 -2 -12q-22 -54 -82.5 -94.5t-119.5 -40.5q-60 0 -101 40t-41 100q0 63 46.5 125.5t107.5 62.5q23 0 45 -18q12 1 17.5 -8t3.5 -21q6 -16 6 -41q0 -31 -11 -66t-34 -35q-29 0 -29 58q0 37 13 67q-10 12 -22 12q-36 0 -62.5 -44t-26.5 -82q0 -45 27.5 -73 t72.5 -28q46 0 87 31.5t63 74.5l1 2q9 12 20 12q21 0 21 -22z" />
<glyph unicode="d" horiz-adv-x="334" d="M366 154q0 -6 -1 -8q-15 -49 -46.5 -88t-74.5 -39q-54 0 -90 59q-56 -76 -115 -76q-34 0 -49.5 26t-15.5 62q0 65 40.5 140.5t99.5 76.5q9 0 14 -1q3 25 8.5 54t16 66.5t29 61.5t41.5 24q49 0 49 -96q0 -110 -80 -276q20 -68 55 -68q19 0 34.5 16.5t23.5 36t18.5 36 t21.5 16.5q9 0 15 -7t6 -16zM223 410q0 25 -4 44q-21 -34 -32 -97t-11 -115q0 -4 0.5 -11.5t0.5 -10.5q46 107 46 190zM26 101q0 -47 26 -47q31 0 83 80q-10 41 -10 110v4q-12 8 -17 8q-27 0 -54.5 -60t-27.5 -95z" />
<glyph unicode="e" horiz-adv-x="230" d="M262 157q0 -7 -3 -11q-22 -46 -69.5 -82t-94.5 -36q-50 0 -79.5 36.5t-29.5 87.5q0 56 34 107.5t86 51.5q26 0 40.5 -17t14.5 -43q0 -45 -37 -82t-82 -39q11 -49 59 -49q26 0 50.5 15t38 30t33.5 42q8 11 18 11q9 0 15 -6.5t6 -15.5zM112 239q0 7 -4 16t-10 9 q-23 0 -39 -27t-19 -53q8 -2 12 -2q20 0 40 18.5t20 38.5z" />
<glyph unicode="f" horiz-adv-x="284" d="M318 159q0 -19 -30 -44.5t-55 -36.5q7 -28 7 -50q0 -59 -34.5 -107.5t-91.5 -48.5q-125 0 -128 230q-29 19 -29 45q0 31 37 46q3 40 14 96t31 122t53 111t72 45q31 0 47 -21.5t16 -53.5q0 -96 -141 -291q82 -8 129 -78q11 4 42.5 31t38.5 27q9 0 15.5 -6.5t6.5 -15.5z M145 508q-37 -30 -62.5 -115t-35.5 -159q45 58 88 133.5t43 123.5q0 25 -16 25q-7 0 -17 -8zM145 111l16 1q-55 37 -94 37q-27 0 -28 -12l3 -2q51 -27 103 -24zM130 -76q29 0 44.5 34t15.5 66q0 24 -7 42q-23 -3 -44 -3q-47 0 -103 18q8 -157 94 -157z" />
<glyph unicode="g" horiz-adv-x="342" d="M374 155q0 -30 -58 -81t-103 -79q17 -112 17 -138q0 -69 -38 -128t-103 -59q-47 0 -83 39.5t-36 86.5q0 35 17.5 68.5t50.5 63.5t59 49t62 42l-3 23q-3 17 -4 26q-48 -32 -92 -32q-36 0 -58 22t-22 58q0 67 66.5 142t133.5 75q29 0 44.5 -18.5t11.5 -47.5q6 -12 6 -32 q0 -37 -20 -76t-20 -50q0 -12 5 -62q65 43 125 119q8 11 20 11q9 0 15.5 -6.5t6.5 -15.5zM191 274q0 10 -16 10q-48 0 -95.5 -57.5t-47.5 -107.5q0 -33 38 -33t79 41q1 27 4.5 46.5t7.5 30t14 32.5zM180 -145q0 43 -13 112q-150 -88 -150 -171q0 -30 24.5 -54.5t54.5 -24.5 q41 0 70 54q14 27 14 84z" />
<glyph unicode="h" horiz-adv-x="301" d="M331 151q0 -36 -43 -77.5t-79 -41.5q-38 0 -54 23.5t-21.5 64.5t-13.5 56q-28 -13 -53 -70t-36 -105q-8 -40 -34 -40q-10 0 -17 7.5t-7 18.5q0 5 1 7q10 48 10 129q0 36 3.5 84.5t14 118t25.5 126t43 96.5t63 40q49 0 49 -79q0 -81 -40 -162.5t-103 -147.5l-4 -54 q53 86 90 86q28 0 41.5 -23t15 -50.5t9 -50.5t23.5 -23q20 0 35.5 14.5t23 31.5t17 31.5t19.5 14.5t16 -7.5t6 -17.5zM132 495q0 25 -6 39q-30 -27 -53 -113.5t-32 -155.5q91 121 91 230z" />
<glyph unicode="i" horiz-adv-x="169" d="M96 357q0 -23 -15.5 -41t-37.5 -18q-14 0 -23.5 8t-9.5 22q0 25 14 48t38 23q16 0 25 -12.5t9 -29.5zM201 157q0 -26 -32 -66.5t-60 -62.5q-29 -21 -62 -21q-67 0 -67 93q0 19 1.5 38.5t5.5 48.5t14.5 47.5t26.5 18.5q11 0 17.5 -7.5t6.5 -18.5q0 -13 -9.5 -57t-9.5 -67 q0 -45 25 -45q42 0 100 106q10 14 22 14q9 0 15 -6t6 -15z" />
<glyph unicode="j" horiz-adv-x="166" d="M102 367q0 -22 -15 -39.5t-36 -17.5q-32 0 -32 32q0 23 14 44t36 21q16 0 24.5 -12t8.5 -28zM197 158q0 -25 -49.5 -79t-81.5 -80q27 -114 27 -169q0 -68 -36.5 -119.5t-101.5 -51.5q-48 0 -78.5 32t-30.5 81q0 63 46.5 126t109.5 114q-20 84 -20 141q0 19 3 38t14.5 37 t29.5 18q13 0 21.5 -9t8.5 -22t-9.5 -39t-9.5 -43q0 -38 12 -84q57 48 100 118q10 15 22 15q10 0 16.5 -7.5t6.5 -16.5zM40 -187q0 47 -25 149q-47 -39 -83 -90.5t-36 -100.5q0 -31 18 -47.5t49 -16.5q41 0 59 31t18 75z" />
<glyph unicode="k" horiz-adv-x="333" d="M363 151q0 -7 -5 -15q-69 -118 -159 -118q-49 0 -97.5 37t-62.5 85q-4 -78 -4 -117q0 -48 -31 -48q-35 0 -35 85q0 27 8 66t9 51q2 13 2.5 36.5t1.5 32.5q11 157 11 170q0 12 -2 37t-2 38t8 22t20 9q5 0 9.5 -2t7.5 -6t5 -8t4 -10l2 -11q1 -5 1 -12v-11v-10v-9 q0 -17 -8 -145q44 58 91 58q38 0 62 -34t24 -74q0 -38 -28 -82.5t-62 -60.5q28 -33 63 -33q33 0 63.5 26t51.5 51.5t30 25.5t15.5 -7.5t6.5 -16.5zM167 241q0 24 -10 44.5t-32 20.5q-25 0 -49.5 -46t-32.5 -80q8 8 23 8q16 0 25.5 -19.5t20.5 -19.5q20 0 37.5 34.5 t17.5 57.5z" />
<glyph unicode="l" horiz-adv-x="199" d="M227 150q0 -46 -43 -93.5t-90 -47.5q-42 0 -68 33t-33.5 71t-7.5 80q0 32 8 85.5t22.5 114t42 103.5t60.5 43q26 0 40 -23t14 -51q0 -70 -39 -156t-92 -153q20 -95 63 -95q20 0 36.5 17.5t25 38.5t19.5 38.5t22 17.5q20 0 20 -23zM124 455q0 21 -9 30q-3 -1 -9 -5 q-32 -30 -49 -105.5t-19 -140.5q32 51 59 114t27 107z" />
<glyph unicode="m" horiz-adv-x="470" d="M505 152q0 -4 -2 -10q-18 -45 -54 -83.5t-77 -38.5q-33 0 -52.5 24.5t-23.5 54.5l-8 60q-5 31 -11 39q-22 -4 -61 -60.5t-44 -82.5q-5 -29 -29 -29q-10 0 -17 7.5t-7 17.5q0 11 11 47.5t11 60.5q0 38 -19 38q-31 0 -68.5 -57t-47.5 -96q-9 -35 -31 -35q-11 0 -19.5 8.5 t-8.5 19.5q0 4 17.5 61t20.5 71q1 3 2.5 15t3 20.5t4.5 21.5t7 22.5t8.5 18.5t11.5 13.5t15 4.5q29 0 29 -32q0 -8 -13 -47q38 40 81 40q27 0 42.5 -17t18.5 -44q55 67 91 67q27 0 40 -28.5t14.5 -62t10.5 -62t28 -28.5q17 0 33 16.5t25 35.5t21.5 35.5t24.5 16.5 q9 0 15.5 -7t6.5 -16z" />
<glyph unicode="n" horiz-adv-x="333" d="M364 153q0 -5 -2 -13q-18 -51 -59.5 -102t-84.5 -51q-27 0 -43.5 10.5t-22.5 30t-8.5 39t-4 44.5t-4.5 39q-2 12 -10 12q-13 0 -34.5 -22.5t-39.5 -50t-36.5 -50t-27.5 -22.5q-11 0 -20.5 6t-9.5 17q0 9 11 24q8 11 13 47.5t5 58.5q0 11 -4.5 33.5t-4.5 32.5q0 14 9.5 23 t22.5 9q8 0 14 -4.5t9.5 -14t6 -18t3 -22.5t0.5 -21v-21v-15q56 63 99 63q30 0 42 -27t10.5 -59.5t5 -59.5t27.5 -27q25 0 46.5 33.5t39 67t31.5 33.5q21 0 21 -23z" />
<glyph unicode="o" horiz-adv-x="339" d="M368 154q0 -33 -44.5 -54t-79.5 -17q-21 -40 -65 -66t-89 -26q-49 0 -81.5 35t-32.5 84q0 64 51.5 109t116.5 45q48 0 58 -16q29 1 46 -30.5t17 -62.5q0 -13 -3 -26q23 0 40 11.5t28 22.5t18 11q8 0 14 -6t6 -14zM213 159q0 13 -9.5 32.5t-20.5 19.5q-7 0 -7 -16 q0 -29 36 -53q1 6 1 17zM194 99q-63 40 -63 94q0 15 4 24q-44 -2 -73 -31t-29 -73q0 -31 18.5 -54t48.5 -23q26 0 52 19t42 44z" />
<glyph unicode="p" horiz-adv-x="330" d="M358 153q0 -7 -4 -12q-30 -49 -90.5 -78.5t-121.5 -29.5q-50 0 -98 20q0 -5 -0.5 -62t-1 -94t-4 -82t-8.5 -63q-7 -28 -32 -28q-21 0 -37 22.5t-24 55t-12 61t-4 48.5q0 153 72 259q1 5 1 16q0 57 -11 117q-1 2 -1 6q0 11 9 21t20 10q7 0 12 -4.5t8 -13t5 -17.5t3.5 -21 t1.5 -20t0.5 -18.5t0.5 -12.5q59 48 119 48q55 0 82.5 -37t27.5 -93q0 -17 -6 -33q5 4 20.5 19.5t29 26.5t21.5 11t15 -6.5t7 -15.5zM216 142q0 34 -17.5 59.5t-49.5 25.5q-27 0 -64.5 -20.5t-40.5 -44.5q-1 -7 -1 -22q0 -17 1 -23q4 -15 31.5 -23.5t48.5 -8.5q36 0 64 13 t28 44zM-2 77q-28 -64 -28 -149q0 -88 20 -128q8 105 8 277z" />
<glyph unicode="q" horiz-adv-x="331" d="M364 158q0 -29 -46.5 -57.5t-80.5 -33.5q51 -83 51 -164q0 -49 -28.5 -103t-73.5 -54q-29 0 -49 24t-28.5 62t-11.5 68t-3 60q0 42 4 75q-26 -14 -48 -14q-33 0 -54 24.5t-21 58.5q0 39 27 90.5t59 71.5q25 17 61 17q32 0 58 -18q30 -6 30 -41q0 -30 -26 -92 q14 -18 39 -18q24 0 45 10t32.5 22.5t23 22.5t19.5 10q9 0 15 -6t6 -15zM149 209q0 10 -10.5 16.5t-20.5 6.5q-37 0 -63.5 -41.5t-26.5 -81.5q0 -34 25 -34q33 0 55 33q-4 8 -4 15q0 24 24 29q1 3 7 17t10 25.5t4 14.5zM238 -107q0 41 -25.5 104t-56.5 77q-10 -57 -10 -120 q0 -38 11.5 -96t34.5 -58q19 0 32.5 35t13.5 58z" />
<glyph unicode="r" horiz-adv-x="267" d="M299 152q0 -3 -2 -7q-16 -52 -56.5 -94.5t-89.5 -42.5q-70 0 -70 93q0 31 4 55q-34 -19 -59 -16q-7 -12 -19 -12q-9 0 -16 5.5t-7 14.5q0 8 6 20q-4 8 -4 19q0 29 19 74t43 45q10 0 17 -9t7 -19q0 -11 -3.5 -23.5t-6 -19.5t-10 -23.5t-9.5 -19.5q2 0 4 -0.5t3 -0.5 q21 0 34.5 12.5t18.5 27t14.5 27t23.5 12.5q11 0 17.5 -8.5t6.5 -19.5q0 -14 -16 -32q-6 -7 -12 -42t-6 -51q0 -54 35 -54q22 0 40 17t27.5 37.5t21.5 37.5t23 17q8 0 14.5 -6t6.5 -14z" />
<glyph unicode="s" horiz-adv-x="230" d="M262 163q0 -25 -34 -65t-60 -56q-13 -24 -40 -40t-54 -16t-55 14t-28 38q0 9 6 16t15 7q4 0 22 -8t33 -8q33 0 58 19q4 8 4 21q0 6 -1.5 12t-5.5 12.5t-7.5 11.5t-9.5 12l-11 11l-12 12q-8 7 -11 10l-11 9q-8 6 -9 7q-1 -1 -5.5 -10.5t-7.5 -14.5l-9 -13q-5 -8 -10.5 -12 t-10.5 -4q-19 0 -19 19q0 11 4.5 23.5t12.5 28t10 21.5q-7 15 -7 35q0 25 17 57t40 32q25 0 25 -32q0 -24 -18 -78q5 -5 23 -21t27 -25t22 -24t20.5 -29.5t10.5 -29.5q25 25 49 66q7 12 18 12q19 0 19 -20z" />
<glyph unicode="t" horiz-adv-x="205" d="M39 152l-1 -2q1 -23 15.5 -47.5t35.5 -24.5t41.5 16t33.5 34.5t27 34.5t24 16q9 0 15 -7.5t6 -17.5q0 -6 -4 -14q-24 -43 -68 -81t-85 -38q-100 0 -100 181q0 56 9 113q-61 0 -61 25q0 20 28 24t44 0q8 26 17.5 50.5t30 50t41.5 25.5q44 0 44 -88q0 -20 -3 -40h16 q14 0 23 -1t20.5 -3t17.5 -7.5t6 -13.5q0 -9 -6.5 -15.5t-15.5 -6.5h-72q-9 -26 -22 -53l-30 -60zM48 362h32q5 22 5 39q0 18 -4 31q-20 -32 -33 -70zM68 314h-30q-12 -58 -12 -104q23 50 42 104z" />
<glyph unicode="u" horiz-adv-x="365" d="M397 150q0 -6 -3 -11q-19 -42 -61.5 -84.5t-80.5 -42.5q-26 0 -49.5 15t-35.5 39q-72 -65 -117 -65q-38 0 -55 28t-17 69q0 29 12 73.5t27 69.5q10 15 28 15q11 0 18.5 -7.5t7.5 -18.5q0 -9 -20.5 -51.5t-20.5 -77.5q0 -49 30 -49q22 0 48.5 22t44.5 46q1 35 16.5 78.5 t42.5 43.5q13 0 20.5 -11t7.5 -25q0 -22 -15 -50t-17 -34q9 -56 46 -56q21 0 40.5 16.5t31.5 36t25.5 36t24.5 16.5q8 0 14.5 -6.5t6.5 -14.5z" />
<glyph unicode="v" horiz-adv-x="299" d="M329 159q0 -31 -33.5 -55t-65.5 -24q-27 0 -52 14q-15 -38 -46 -65.5t-68 -27.5q-45 0 -66 31.5t-21 78.5q0 39 20 99t51 60q10 0 17.5 -8t7.5 -17q0 -3 -10 -25t-20 -52t-10 -55q0 -22 10 -43t29 -21q18 0 41.5 29.5t23.5 48.5q0 3 -9 27t-9 42q0 57 35 57q42 0 42 -72 q0 -17 -3 -34q19 -17 41 -17q15 0 27 7.5t18 17t13.5 17t15.5 7.5q21 0 21 -20z" />
<glyph unicode="w" horiz-adv-x="465" d="M498 154q0 -5 -3 -11q-15 -35 -55 -58.5t-79 -23.5q-21 0 -41 6q-43 -67 -102 -67q-28 0 -51.5 16.5t-34.5 43.5q-53 -57 -98 -57q-32 0 -49.5 17.5t-17.5 49.5q0 45 24 116t59 71q12 0 21.5 -8t9.5 -20l-29 -61q-28 -60 -28 -89q0 -27 13 -27q20 0 52 34.5t34 55.5l1 12 q1 11 2 14l2 15q1 11 2.5 16.5t4.5 15t7 13.5l8 10q4 6 10.5 8.5t13.5 2.5q25 0 25 -34q0 -17 -10.5 -48t-10.5 -47q0 -23 12.5 -45.5t34.5 -22.5q30 0 56 43q-13 18 -13 49q0 27 13.5 60.5t36.5 33.5q30 0 30 -55q0 -23 -8 -67q10 -5 27 -5q24 0 43 10t28 22.5t19 22.5 t19 10t15.5 -7t6.5 -15z" />
<glyph unicode="x" horiz-adv-x="335" d="M368 149q0 -8 -5 -18q-26 -58 -77 -99.5t-109 -41.5q-53 0 -99 38l-44 -59q-32 -42 -47 -65q0 -1 -4 -6.5t-5.5 -8t-5.5 -7t-6.5 -6.5t-6.5 -4t-8 -2q-10 0 -18 8t-8 19q0 5 4 13l2 3q18 27 58.5 76t57.5 74q-27 27 -50 70.5t-23 75.5q0 14 7.5 25t20.5 11q14 0 22 -9 t10.5 -18.5t5 -26t4.5 -22.5q9 -33 35 -61q20 32 85 145q10 17 25 17q24 0 24 -20q0 -8 -8 -25.5t-22 -41.5l-26 -43l-26 -42l-17 -26q31 -31 70 -31q35 0 64 19.5t44 43.5t31 43.5t28 19.5q17 0 17 -18z" />
<glyph unicode="y" horiz-adv-x="343" d="M139 108v19q0 38 14 83t43 45q26 0 26 -44q0 -25 -12.5 -59.5t-12.5 -51.5q0 -18 7 -42q91 55 124 108q9 15 22 15q21 0 21 -24q0 -27 -54.5 -73.5t-98.5 -73.5q41 -121 41 -201q0 -147 -156 -147q-66 0 -113 30t-47 93q0 37 21 75t56 69.5t67 54t68 43.5q-2 5 -7 23 q-64 -52 -117 -52q-30 0 -50.5 19t-20.5 49q0 38 29.5 105.5t60.5 67.5q10 0 16 -6.5t6 -16.5q0 -19 -16 -25q-43 -68 -43 -113q0 -28 31 -28q25 0 52 17.5t43 40.5zM116 -291q49 0 71 20t22 69q0 68 -40 184q-65 -37 -118 -88.5t-53 -107.5q0 -77 118 -77z" />
<glyph unicode="z" horiz-adv-x="335" d="M362 60q0 -15 -17 -25q-9 -5 -32 -14.5t-34 -15.5q-5 -103 -117 -209q-46 -43 -105 -77.5t-107 -34.5q-23 0 -38 14.5t-15 37.5q0 109 318 292q-7 33 -43 33q-26 0 -72 -34t-68 -34q-10 0 -16.5 7.5t-6.5 17.5q0 20 25.5 38t60 35t45.5 27q43 41 43 74q0 17 -13.5 27 t-30.5 10q-30 0 -55 -24.5t-43.5 -48.5t-31.5 -24q-9 0 -14.5 6.5t-5.5 15.5t5 17q20 43 63.5 77.5t86.5 34.5q37 0 66 -26.5t29 -62.5q0 -38 -35 -83q52 -10 67 -56q56 28 68 28q10 0 16.5 -6.5t6.5 -16.5zM217 -25q-70 -37 -169 -114t-99 -120q0 -1 0.5 -4t0.5 -5h6 q35 0 88 32.5t87 65.5q76 76 86 145z" />
<glyph unicode="{" horiz-adv-x="269" d="M225 -115q0 -17 -40 -17q-22 0 -38.5 6t-26 20t-15.5 26.5t-8 35t-2.5 35t-0.5 37.5v8q0 20 1.5 59t1.5 58q0 35 -1.5 50.5t-11.5 36t-32 37.5q-9 7 -9 12t23 24t27 38q4 15 4 46q0 20 -1.5 58t-1.5 57v32q0 8 1.5 31.5t4.5 33t9.5 26t16 24t24.5 13.5t35 6h20 q5 0 11.5 -3t7.5 -10t1 -20q0 -8 -4.5 -11.5t-9 -4t-14 0.5t-11.5 1q-15 0 -24.5 -9.5t-13 -30t-4 -30t-0.5 -30.5t2 -62t2 -61q0 -90 -32 -120q30 -37 30 -145q0 -20 -1 -59.5t-1 -59.5v-7q-1 -102 42 -102q4 0 11 0.5t10 0.5q5 0 9 -1.5t5.5 -3t2.5 -5.5t1 -6v-8v-7z" />
<glyph unicode="|" horiz-adv-x="238" d="M129 750v-1000h-50v1000h50z" />
<glyph unicode="}" horiz-adv-x="269" d="M182 290q0 -7 -8 -13q-22 -18 -32 -38.5t-11.5 -35.5t-1.5 -50q0 -19 1.5 -58t1.5 -59v-8q0 -25 -0.5 -37.5t-2.5 -35t-8 -35t-15.5 -26t-26 -20t-38.5 -6.5h-21q-4 0 -10.5 3t-7.5 10t-1 20q0 8 4.5 11.5t9 4t14 -0.5t11.5 -1q43 0 42 102v7q0 20 -1 59.5t-1 59.5 q0 108 30 145q-32 30 -32 120q0 20 2 61t2 62t-0.5 30.5t-4 30t-13 30t-24.5 9.5q-3 0 -10.5 -0.5t-11.5 -0.5q-5 0 -8.5 1.5t-5.5 3t-2.5 5.5t-0.5 6v7v8q0 17 40 17q20 0 35 -6t24.5 -13.5t16 -24t9.5 -26t4.5 -33t1.5 -31.5v-32q0 -19 -1.5 -57t-1.5 -58q0 -39 7 -56 t37 -37q9 -5 9 -14z" />
<glyph unicode="~" d="M360 500q0 -21 -39.5 -43t-76.5 -22q-15 0 -29 4.5t-20.5 7.5t-23 14.5t-20.5 13.5q-4 -2 -36 -19.5t-50 -17.5q-14 0 -23.5 7.5t-9.5 19.5q0 17 42.5 38.5t77.5 21.5q7 0 14 -1t12.5 -2.5t13 -5t11 -4.5t12 -6.5t10.5 -6.5t11 -7.5t10 -6.5q1 1 10 7.5t12 9t11 7.5 t13.5 7t13.5 4t16 2q15 0 26.5 -7t11.5 -15z" />
<glyph unicode="&#xa1;" horiz-adv-x="234" d="M152 246q0 -15 -10.5 -27.5t-25.5 -12.5q-16 0 -35 22t-19 38q0 15 12 26t27 11q20 0 35.5 -18.5t15.5 -38.5zM146 14q0 -150 -12 -299q-1 -14 -10 -24.5t-23 -10.5q-9 0 -16.5 6.5t-7.5 15.5v6q0 44 8.5 131.5t8.5 132.5q0 122 -10 145q-7 5 -7 14t10 16.5t20 7.5 t17.5 -5.5t11.5 -16.5t6.5 -22.5t3.5 -27.5t1 -26t-0.5 -24.5t-0.5 -18.5z" />
<glyph unicode="&#xa2;" horiz-adv-x="335" d="M331 309q0 -27 -63 -47t-110 -26q-3 -39 -3 -77q8 -10 8 -19q0 -14 -11.5 -25.5t-25.5 -11.5q-12 0 -20 9t-8 21q0 20 3.5 59t3.5 46q-40 9 -67 31t-27 58q0 43 36 76.5t81 45.5q0 3 -1 19t-0.5 26.5t3 24t10 20.5t20.5 7q12 0 17.5 -8.5t6 -15t0.5 -20.5q0 -15 -2 -45 q17 -1 28 -2.5t26 -6.5t22.5 -15.5t7.5 -26.5t-10 -26.5t-26 -10.5q-13 0 -21.5 9.5t-8.5 22.5q-17 0 -25 2q-3 -19 -6.5 -59t-6.5 -59q24 2 60 11t50 20q8 20 28 20q12 0 21.5 -7.5t9.5 -19.5zM122 395q-23 -7 -41.5 -23t-18.5 -37q0 -19 14.5 -30.5t35.5 -14.5 q7 47 10 105z" />
<glyph unicode="&#xa3;" horiz-adv-x="598" d="M597 48q0 -12 -11 -23q-56 -56 -153 -56q-77 0 -198 43q-37 -56 -99 -56q-45 0 -89.5 30t-44.5 73q0 28 23 45.5t52 17.5q13 0 32.5 -5t32 -9.5t38 -15t28.5 -11.5q9 27 36 157q-86 4 -86 36q0 11 8 19.5t19 8.5q4 0 23.5 -6.5t36.5 -6.5h8q11 36 17.5 54.5t21 56.5 t29.5 60t35.5 47t46.5 37t56 12q28 0 66 -21t38 -46q0 -11 -7.5 -18t-17.5 -7t-28.5 17.5t-39.5 17.5q-32 0 -59.5 -22t-46.5 -58t-30.5 -67t-19.5 -63q84 11 116 11q64 0 64 -34q0 -11 -6.5 -20.5t-17.5 -9.5q-3 0 -11 2q-16 7 -50 7q-16 0 -34.5 -1t-41 -2.5t-34.5 -2.5 q-23 -112 -43 -177q101 -39 180 -39q35 0 65 11.5t49 22.5t27 11t14 -6t6 -14zM184 31q-92 36 -110 36q-11 0 -16 -10q6 -21 29 -36.5t46 -15.5q30 0 51 26z" />
<glyph unicode="&#xa4;" horiz-adv-x="380" d="M255 263q0 33 -22.5 57t-56.5 24t-56.5 -24t-22.5 -57q0 -34 22.5 -57.5t56.5 -23.5q33 0 56 24t23 57zM249 370l59 59l34 -34l-59 -59q22 -32 22 -73q0 -44 -22 -73l59 -59l-34 -34l-59 59q-32 -22 -73 -22t-73 22l-59 -59l-34 34l59 59q-22 32 -22 73q0 44 22 73 l-59 59l34 34l59 -59q32 22 73 22t73 -22z" />
<glyph unicode="&#xa5;" horiz-adv-x="569" d="M390 -2l25 42q-58 -2 -89 -2q-49 0 -49 26q0 10 9 19t19 9q3 0 23 -6.5t36 -6.5q8 0 25 0.5t26 0.5q-12 155 -12 157q-55 -65 -129 -113.5t-143 -48.5q-59 0 -93 34.5t-34 93.5q0 77 44 176t100 172q12 15 29 15q26 0 26 -27q0 -21 -15.5 -46.5t-34.5 -25.5 q-40 -58 -69.5 -126t-29.5 -123q0 -42 23 -67.5t65 -25.5q69 0 141.5 60.5t113.5 130.5q5 8 13.5 59.5t24.5 92.5t43 41q14 0 21.5 -9.5t7.5 -23.5q0 -53 -34 -128q-13 -25 -14 -32q-2 -6 -2 -47l9 -174q1 1 10 11l14 16q6 7 15.5 16.5t16.5 15.5t15 10.5t14 4.5 q11 0 20 -6.5t9 -16.5q0 -29 -29 -32q-6 -3 -25 -25q54 3 55 3q33 0 33 -25q0 -27 -35 -27q-8 0 -24.5 3t-25.5 3q-39 0 -58 -2q1 -7 1.5 -21t0.5 -19q66 6 99 6q36 0 36 -26q0 -11 -6.5 -20.5t-17.5 -9.5q-3 0 -11 2q-16 7 -50 7q-17 0 -51 -2v-34q0 -252 -102 -252 q-38 0 -57.5 29.5t-19.5 68.5q0 72 69 184h-20q-70 0 -70 31q0 9 7.5 14.5t16.5 5.5q5 0 21.5 -5t29.5 -5h43zM373 -280q49 0 49 196q0 26 -1 38q-76 -111 -76 -181q0 -18 6.5 -35.5t21.5 -17.5z" />
<glyph unicode="&#xa6;" horiz-adv-x="238" d="M79 175h50v-350h-50v350zM79 675h50v-350h-50v350z" />
<glyph unicode="&#xa7;" horiz-adv-x="391" d="M337 159q0 -61 -73 -108q29 -34 29 -73q0 -52 -38.5 -82.5t-91.5 -30.5t-92.5 32t-39.5 80q0 25 44 25q11 0 17.5 -13t9.5 -28.5t17 -28.5t39 -13q27 0 49.5 14t22.5 39q0 28 -22.5 51.5t-55.5 42.5l-64 40q-32 21 -54.5 51.5t-22.5 68.5q0 34 18.5 63.5t48.5 48.5 q-24 29 -24 60q0 48 38.5 82.5t87.5 34.5q55 0 92 -32t37 -85q0 -11 -7.5 -16t-13.5 -5.5t-20 -0.5q-10 0 -17 13t-11.5 28.5t-19.5 28.5t-39 13q-23 0 -41.5 -16.5t-18.5 -39.5q0 -22 22 -42.5t54 -38.5t64 -39t54 -53t22 -71zM271 155q0 17 -12.5 35.5t-26.5 31.5 t-40.5 30.5t-37.5 23.5l-34 19q-43 -28 -43 -68q0 -9 3.5 -18.5t11 -19t14.5 -17.5t19 -17l21 -16l22.5 -14.5t20.5 -12.5l20 -12q13 -7 15 -8q15 10 23 16.5t16 19.5t8 27z" />
<glyph unicode="&#xa8;" horiz-adv-x="250" d="M267 391q0 -14 -17.5 -27.5t-32.5 -13.5q-14 0 -24 7.5t-10 20.5q0 14 15.5 27.5t28.5 13.5q15 0 27.5 -7t12.5 -21zM113 392q0 -16 -18.5 -30t-34.5 -14q-11 0 -18.5 7t-7.5 18q0 18 16.5 33t34.5 15q11 0 19.5 -9t8.5 -20z" />
<glyph unicode="&#xa9;" horiz-adv-x="671" d="M578 264q0 -110 -77 -187t-188 -77t-188 77t-77 187t77 187t188 77t188 -77t77 -187zM82 264q0 -94 68.5 -163t162.5 -69q93 0 162 69t69 163t-69 163t-162 69q-94 0 -162.5 -69t-68.5 -163zM435 317q0 -9 -14 -9q-10 0 -12 6q-32 74 -90 74q-45 0 -70 -40.5t-25 -88.5 t25 -81t71 -33q23 0 45.5 9.5t36.5 19.5t17 10q13 0 13 -13q0 -18 -43.5 -40.5t-77.5 -22.5q-66 0 -107.5 42t-41.5 107q0 67 42.5 114t108.5 47q16 0 43.5 -7.5t35.5 -7.5q7 0 10.5 6t17.5 6q6 0 8 -7q7 -38 7 -91z" />
<glyph unicode="&#xaa;" horiz-adv-x="313" d="M299 321q0 -24 -30 -24q-20 1 -39.5 15t-30.5 41q-54 -64 -114 -56q-35 5 -55.5 32.5t-15.5 62.5q5 38 44 87.5t87.5 75t94.5 -0.5q15 -10 17.5 -25.5t-5.5 -23.5q6 -12 -2.5 -43.5t-8.5 -32.5q-5 -86 30 -83q12 1 20 -6.5t8 -18.5zM213 511q-28 19 -64.5 -5.5 t-60.5 -60.5t-27 -56q-4 -30 13.5 -41t44.5 -3q26 8 48 32t26 57q0 2 1.5 22.5t5.5 34t13 20.5z" />
<glyph unicode="&#xab;" horiz-adv-x="343" d="M292 260q0 -19 -87 -116q78 -111 78 -124q0 -21 -20 -21q-18 0 -69.5 64t-51.5 83q0 11 11 26q95 110 118 110q9 0 15 -6.5t6 -15.5zM150 259q0 -17 -87 -115q78 -111 78 -124q0 -21 -20 -21q-18 0 -69.5 63t-51.5 84q0 13 10 26q16 19 90 93q15 17 29 17q9 0 15 -7 t6 -16z" />
<glyph unicode="&#xac;" d="M38 281h307q8 0 8 -8v-157q0 -8 -8 -8h-36q-8 0 -8 8v116h-263q-8 0 -8 8v33q0 8 8 8z" />
<glyph unicode="&#xad;" horiz-adv-x="295" d="M211 191q51 0 51 -27q0 -28 -30 -28q-6 0 -20 2t-20 2q-17 0 -50.5 -4t-51.5 -4q-49 0 -49 28q0 14 9.5 26t22.5 12q15 0 22 -13q4 -1 12 -1q17 0 52 3.5t52 3.5z" />
<glyph unicode="&#xae;" horiz-adv-x="515" d="M49 341q0 79 54 133t133 54t133 -54t54 -133q0 -78 -54.5 -132t-132.5 -54t-132.5 54t-54.5 132zM81 341q0 -61 47 -108.5t108 -47.5q64 0 109.5 47t45.5 109t-45.5 109.5t-109.5 47.5q-61 0 -108 -47.5t-47 -109.5zM170 293v125q0 11 -3.5 14t-14.5 4v9h84q81 0 81 -53 q0 -21 -15.5 -35.5t-36.5 -17.5q51 -77 59 -84q2 -2 10 -4v-9h-51l-59 94h-14v-49q0 -36 19 -36v-9h-81v9q10 2 15 8.5t6 13t1 20.5zM210 419v-66h28q16 0 27 10t11 27q0 39 -44 39q-6 0 -10.5 -0.5t-8.5 -3t-3 -6.5z" />
<glyph unicode="&#xaf;" horiz-adv-x="265" d="M244 360q0 -26 -40 -26q-21 0 -63.5 -1.5t-63.5 -1.5q-13 0 -22.5 6.5t-9.5 18.5q0 27 40 27q21 0 62.5 1t62.5 1q13 0 23.5 -6.5t10.5 -18.5z" />
<glyph unicode="&#xb0;" horiz-adv-x="208" d="M173 491q0 -31 -20.5 -51t-51.5 -20q-30 0 -51 20.5t-21 50.5t21 51.5t51 21.5t51 -21.5t21 -51.5zM141 491q0 17 -11.5 29t-28.5 12q-16 0 -28 -12t-12 -29t11.5 -28t28.5 -11t28.5 11t11.5 28z" />
<glyph unicode="&#xb1;" d="M343 225q0 -8 -8 -8h-113v-101q0 -8 -8 -8h-36q-8 0 -8 8v101h-112q-8 0 -8 8v33q0 8 8 8h112v101q0 8 8 8h36q8 0 8 -8v-101h113q8 0 8 -8v-33zM58 58h277q8 0 8 -8v-33q0 -8 -8 -8h-277q-8 0 -8 8v33q0 8 8 8z" />
<glyph unicode="&#xb2;" horiz-adv-x="295" d="M279 352q12 -15 -5 -32.5t-34 -17.5q-19 0 -56.5 7.5t-56.5 7.5q-27 0 -40 -4q-3 -1 -20.5 -8.5t-28.5 -7.5q-20 0 -25 18q-3 10 3 19.5t19 12.5q47 10 55 16l33 25q12 9 33.5 28t32.5 37.5t11 35.5q0 16 -13.5 28t-31.5 12q-22 0 -48 -11t-35 -25q-16 -25 -36 -25 q-18 2 -18 26q0 22 46.5 49t97.5 27q35 0 60.5 -20.5t25.5 -56.5q0 -27 -17 -54.5t-34 -43.5t-45 -37q57 -4 85 -10q4 -1 12.5 4t14.5 6.5t15 -6.5z" />
<glyph unicode="&#xb3;" horiz-adv-x="311" d="M288 408q0 -49 -58.5 -80t-113.5 -31q-19 0 -37.5 2.5t-37.5 14t-19 29.5q0 21 20 26q10 2 18.5 -2.5t9.5 -15.5q23 -13 60 -10t72 21.5t35 39.5q0 26 -29 29q-38 -21 -82 -21q-27 0 -29.5 19t24.5 31q36 17 85 15q21 12 21 26q0 18 -53 18q-81 0 -99 -26q-4 -13 -15 -17 t-21 1q-11 6 -13 17t9 27q17 19 55 30.5t84 11.5q38 0 71 -13t33 -46q0 -23 -24 -45q34 -18 34 -51z" />
<glyph unicode="&#xb4;" horiz-adv-x="250" d="M249 428q0 -19 -14 -27q-2 -2 -31 -21.5t-51 -32t-31 -12.5t-15.5 6.5t-6.5 15.5q0 16 18 29q96 69 108 69q11 0 17 -8t6 -19z" />
<glyph unicode="&#xb5;" d="M302 206q0 -22 -15 -50t-17 -34q0 -28 12.5 -48t33.5 -20q15 0 24.5 -6t9.5 -15q0 -8 -9.5 -14.5t-26.5 -6.5q-63 0 -85 54q-72 -65 -117 -65q-11 0 -20 3v-6q0 -29 -12 -73.5t-27 -69.5q-10 -15 -28 -15q-11 0 -18.5 7.5t-7.5 18.5q0 7 20.5 53.5t20.5 91.5 q0 15 -0.5 44t-0.5 43q0 29 12.5 73t27.5 70q10 15 28 15q11 0 18.5 -7.5t7.5 -18.5q0 -9 -20.5 -51.5t-20.5 -77.5q0 -49 30 -49q22 0 48.5 22t44.5 46q1 35 16.5 78.5t42.5 43.5q13 0 20.5 -11t7.5 -25z" />
<glyph unicode="&#xb6;" horiz-adv-x="411" d="M360 470q0 -3 -2.5 -5t-7.5 -3t-9 -1t-9.5 0.5t-6.5 0.5v-570q0 -8 -8 -8h-35q-8 0 -8 8v570h-56v-568q0 -8 -8 -8h-35q-8 0 -8 8v283q-66 7 -105 51.5t-39 111.5q0 65 45.5 119t108.5 54h175q4 0 6 -3.5t2.5 -9.5t0.5 -11t-0.5 -11t-0.5 -8z" />
<glyph unicode="&#xb7;" horiz-adv-x="172" d="M119 251q0 -21 -23.5 -39.5t-44.5 -18.5q-15 0 -25.5 10t-10.5 25q0 16 15 35.5t30 19.5q6 0 11 -3q8 2 14 2q13 0 23.5 -9t10.5 -22z" />
<glyph unicode="&#xb8;" horiz-adv-x="300" d="M116 39q0 -4 -12.5 -15.5t-12.5 -24.5q0 -8 5.5 -22.5t5.5 -22.5q0 -14 -14.5 -29.5t-29.5 -15.5q-14 0 -14 12q0 7 10.5 16t10.5 18q0 8 -5 23t-5 23q0 17 13.5 34t30.5 17t17 -13z" />
<glyph unicode="&#xb9;" horiz-adv-x="163" d="M128 539q0 -8 -5 -63.5t-7 -83.5q-3 -50 0 -55q19 -17 5 -35q-14 -14 -29 -9q-25 7 -24 45q1 62 12 153l-27 -27q-16 -12 -29 0q-16 14 0 32q48 48 67 65q16 14 29 1q8 -8 8 -23z" />
<glyph unicode="&#xba;" horiz-adv-x="349" d="M332 414q1 -12 -11 -21.5t-33 -6.5q-22 -39 -65.5 -65t-87.5 -26q-49 0 -80.5 34.5t-31.5 82.5q0 64 51 108t115 44q48 0 57 -16q13 0 20 -4q20 -12 31 -38t11 -49q0 -15 -3 -28q25 4 27 -15zM260 461q0 15 -9 28.5t-17 13.5q-7 0 -7 -14q0 -25 31 -44q2 10 2 16z M243 401q-64 39 -65 95q0 10 4 28q-45 -3 -77.5 -34t-32.5 -75q0 -33 20.5 -56t52.5 -23q27 0 55 19t43 46z" />
<glyph unicode="&#xbb;" horiz-adv-x="343" d="M298 139v-6q-3 -21 -58 -78t-74 -57q-20 0 -20 21q0 8 17.5 31.5t44 54.5t27.5 32l-13 19l-21 28l-20 28q-11 16 -17 28t-6 18q0 9 6.5 16t15.5 7q15 0 66.5 -62.5t51.5 -79.5zM154 140q0 -21 -57 -80.5t-75 -59.5q-19 0 -19 21q0 8 18 32t42.5 53t27.5 33 q-76 103 -76 120q0 24 21 24q14 0 29 -20l80 -100q9 -9 9 -23z" />
<glyph unicode="&#xbc;" horiz-adv-x="590" d="M128 539q0 -8 -5 -63.5t-7 -83.5q-3 -50 0 -55q19 -17 5 -35q-14 -14 -29 -9q-25 7 -24 45q1 62 12 153l-27 -27q-16 -12 -29 0q-16 14 0 32q48 48 67 65q16 14 29 1q8 -8 8 -23zM542 108q0 -7 -2.5 -12t-8 -7.5t-8.5 -3.5t-10.5 -2t-8.5 -1v-32q0 -14 0.5 -30.5 t0.5 -20.5q0 -27 -26 -27q-28 0 -28 25q0 5 5 12q1 5 1 66q-35 -8 -62 -8q-91 0 -91 51q0 6 4 18q9 26 76.5 85t95.5 59q29 0 29 -35q0 -17 -2.5 -59.5t-2.5 -63.5q5 1 12 4.5t10 3.5q16 0 16 -22zM355 122q0 -14 45 -14q32 0 58 8q0 38 5 111q-18 -8 -63 -47t-45 -58z M527 593q0 -6 -6 -17.5t-16 -26t-19 -25.5l-19 -25q-11 -14 -12 -15q-13 -17 -94 -116l-109 -136q-29 -38 -82 -113.5t-91 -139.5l-9 -19q-9 -17 -14 -24t-15 -15t-20 -8q-23 0 -23 23q0 24 105 169.5t164 218.5l132 164q50 65 61 86q1 1 2.5 5t2.5 5.5t3 5.5l3 6q1 2 3.5 5 t4 4.5t4.5 3.5t5.5 3t5.5 2t7 1q9 0 17.5 -6.5t8.5 -15.5z" />
<glyph unicode="&#xbd;" horiz-adv-x="620" d="M586 45q12 -15 -5 -32.5t-34 -17.5q-19 0 -56.5 7.5t-56.5 7.5q-27 0 -40 -4q-3 -1 -20.5 -8.5t-28.5 -7.5q-20 0 -25 18q-2 10 3.5 19.5t18.5 12.5q46 10 55 16l33 25q12 9 33.5 28t32.5 37.5t11 35.5q0 16 -13.5 28t-31.5 12q-22 0 -48 -11t-35 -25q-16 -25 -36 -25 q-18 2 -18 26q0 22 46.5 49t97.5 27q35 0 60.5 -20.5t25.5 -56.5q0 -27 -17 -54.5t-34 -43.5t-45 -37q57 -4 85 -10q4 -1 12.5 4t14.5 6.5t15 -6.5zM128 539q0 -8 -5 -63.5t-7 -83.5q-3 -50 0 -55q19 -17 5 -35q-14 -14 -29 -9q-25 7 -24 45q1 62 12 153l-27 -27 q-16 -12 -29 0q-16 14 0 32q48 48 67 65q16 14 29 1q8 -8 8 -23zM519 593q0 -6 -6 -17.5t-16 -26t-19 -25.5l-19 -25q-11 -14 -12 -15q-13 -17 -94 -116l-109 -137q-29 -37 -82 -112.5t-91 -139.5l-10 -19q-8 -17 -13 -24t-15 -15t-20 -8q-23 0 -23 23q0 24 105 169.5 t164 218.5l132 164q50 65 61 86q1 1 2.5 5t2.5 5.5t3 5.5l3 6q1 2 3.5 5t4 4.5t4.5 3.5t5.5 3t5.5 2t7 1q9 0 17.5 -6.5t8.5 -15.5z" />
<glyph unicode="&#xbe;" horiz-adv-x="660" d="M612 108q0 -7 -2.5 -12t-8 -7.5t-8.5 -3.5t-10.5 -2t-8.5 -1v-32q0 -14 0.5 -30.5t0.5 -20.5q0 -27 -26 -27q-28 0 -28 25q0 5 5 12q1 5 1 66q-35 -8 -62 -8q-91 0 -91 51q0 6 4 18q9 26 76.5 85t95.5 59q29 0 29 -35q0 -17 -2.5 -59.5t-2.5 -63.5q5 1 12 4.5t10 3.5 q16 0 16 -22zM425 122q0 -14 45 -14q32 0 58 8q0 38 5 111q-18 -8 -63 -47t-45 -58zM599 593q0 -6 -6 -17.5t-16 -26l-18 -25.5l-20 -25q-11 -14 -12 -15l-93 -116l-110 -136q-29 -38 -82 -113.5t-91 -139.5l-9 -19q-9 -17 -14 -24t-15 -15t-20 -8q-23 0 -23 23 q0 24 105 169.5t164 218.5l132 164q50 65 61 86q1 1 2.5 5t2.5 5.5t3 5.5l3 6q1 2 3.5 5t4 4.5t4.5 3.5t5.5 3t5.5 2t7 1q9 0 17.5 -6.5t8.5 -15.5zM288 408q0 -49 -58.5 -80t-113.5 -31q-19 0 -37.5 2.5t-37.5 14t-19 29.5q0 21 20 26q10 2 18.5 -2.5t9.5 -15.5 q23 -13 60 -10t72 21.5t35 39.5q0 26 -29 29q-38 -21 -82 -21q-27 0 -29.5 19t24.5 31q36 17 85 15q21 12 21 26q0 18 -53 18q-81 0 -99 -26q-4 -13 -15 -17t-21 1q-11 6 -13 17t9 27q17 19 55 30.5t84 11.5q38 0 71 -13t33 -46q0 -23 -24 -45q34 -18 34 -51z" />
<glyph unicode="&#xbf;" horiz-adv-x="438" d="M312 276q0 -13 -4.5 -21t-9 -10.5t-16.5 -7.5l-18 -7q-12 -4 -19 -4q-28 0 -28 33q0 21 15.5 35.5t37.5 14.5q14 0 28 -10t14 -23zM430 -144q0 -32 -38.5 -58.5t-92 -41.5t-102 -23t-78.5 -8q-26 0 -50.5 4t-49.5 13.5t-40.5 29t-15.5 47.5q0 34 27.5 71.5t68 70.5 t82.5 63.5t76 60.5t42 52q-14 -1 -43 -8.5t-44 -7.5q-24 0 -24 25q0 14 8.5 25t22.5 11q4 0 11.5 -1.5t10.5 -1.5q9 0 28 4.5t29 4.5q24 0 41.5 -10.5t17.5 -33.5q0 -25 -30.5 -57t-73.5 -65l-87 -65q-44 -33 -74.5 -68.5t-30.5 -64.5q0 -30 33 -41.5t71 -11.5 q53 0 122.5 19t108.5 47q16 12 16 18q0 16 -28 16q-6 0 -19 -2t-19 -2q-28 0 -28 20q0 29 74 29q28 0 53 -17t25 -43z" />
<glyph unicode="&#xc0;" horiz-adv-x="767" d="M770 13q0 -24 -30 -24q-66 0 -127.5 33t-106.5 87q-3 1 -10 1q-14 0 -39.5 -2t-34.5 -2q-75 -3 -152 -3h-35q-173 -198 -220 -198q-14 0 -26 9t-12 23q0 16 13 24.5t30 6.5q63 42 150 135q-201 0 -201 53q0 10 8 18t19 8q7 0 15 -4q63 -24 206 -24q83 97 177 242 q-6 58 -6 87q0 22 4.5 53t14 65.5t28 58.5t42.5 24q48 0 48 -78q0 -79 -76 -211q26 -141 89 -232q100 6 158 19q1 0 3.5 0.5t3.5 0.5q10 0 16.5 -7.5t6.5 -17.5q0 -21 -19 -29q-6 -2 -63.5 -6t-68.5 -6q63 -55 132 -71q7 -2 20 -3t19 -3q24 -5 24 -27zM473 599q0 14 -3 21 q-17 -18 -26.5 -60t-6.5 -71l1 -12q35 77 35 122zM473 161q-42 80 -65 169q-49 -74 -129 -176q107 2 194 7zM543 757q0 -10 -6.5 -16t-16.5 -6q-8 0 -29 16.5t-46.5 39t-29.5 25.5q-12 10 -12 24q0 11 6.5 19t17.5 8q8 0 28 -16.5t45.5 -41.5t27.5 -26q15 -13 15 -26z" />
<glyph unicode="&#xc1;" horiz-adv-x="767" d="M770 13q0 -24 -30 -24q-66 0 -127.5 33t-106.5 87q-3 1 -10 1q-14 0 -39.5 -2t-34.5 -2q-75 -3 -152 -3h-35q-173 -198 -220 -198q-14 0 -26 9t-12 23q0 16 13 24.5t30 6.5q63 42 150 135q-201 0 -201 53q0 10 8 18t19 8q7 0 15 -4q63 -24 206 -24q83 97 177 242 q-6 58 -6 87q0 22 4.5 53t14 65.5t28 58.5t42.5 24q48 0 48 -78q0 -79 -76 -211q26 -141 89 -232q100 6 158 19q1 0 3.5 0.5t3.5 0.5q10 0 16.5 -7.5t6.5 -17.5q0 -21 -19 -29q-6 -2 -63.5 -6t-68.5 -6q63 -55 132 -71q7 -2 20 -3t19 -3q24 -5 24 -27zM473 599q0 14 -3 21 q-17 -18 -26.5 -60t-6.5 -71l1 -12q35 77 35 122zM473 161q-42 80 -65 169q-49 -74 -129 -176q107 2 194 7zM569 828q0 -19 -14 -27q-2 -2 -31 -21.5t-51 -32t-31 -12.5t-15.5 6.5t-6.5 15.5q0 16 18 29q96 69 108 69q11 0 17 -8t6 -19z" />
<glyph unicode="&#xc2;" horiz-adv-x="767" d="M770 13q0 -24 -30 -24q-66 0 -127.5 33t-106.5 87q-3 1 -10 1q-14 0 -39.5 -2t-34.5 -2q-75 -3 -152 -3h-35q-173 -198 -220 -198q-14 0 -26 9t-12 23q0 16 13 24.5t30 6.5q63 42 150 135q-201 0 -201 53q0 10 8 18t19 8q7 0 15 -4q63 -24 206 -24q83 97 177 242 q-6 58 -6 87q0 22 4.5 53t14 65.5t28 58.5t42.5 24q48 0 48 -78q0 -79 -76 -211q26 -141 89 -232q100 6 158 19q1 0 3.5 0.5t3.5 0.5q10 0 16.5 -7.5t6.5 -17.5q0 -21 -19 -29q-6 -2 -63.5 -6t-68.5 -6q63 -55 132 -71q7 -2 20 -3t19 -3q24 -5 24 -27zM473 599q0 14 -3 21 q-17 -18 -26.5 -60t-6.5 -71l1 -12q35 77 35 122zM473 161q-42 80 -65 169q-49 -74 -129 -176q107 2 194 7zM587 729q0 -9 -6 -15t-15 -6q-8 0 -25 11.5t-36.5 27.5t-24.5 19q-1 -1 -24.5 -16.5t-41 -25t-25.5 -9.5t-14 5.5t-6 13.5q0 16 49 51t66 35q6 0 15 -4.5 t20.5 -13.5t18.5 -16l20 -18q12 -10 13 -11q16 -12 16 -28z" />
<glyph unicode="&#xc3;" horiz-adv-x="767" d="M770 13q0 -24 -30 -24q-66 0 -127.5 33t-106.5 87q-3 1 -10 1q-14 0 -39.5 -2t-34.5 -2q-75 -3 -152 -3h-35q-173 -198 -220 -198q-14 0 -26 9t-12 23q0 16 13 24.5t30 6.5q63 42 150 135q-201 0 -201 53q0 10 8 18t19 8q7 0 15 -4q63 -24 206 -24q83 97 177 242 q-6 58 -6 87q0 22 4.5 53t14 65.5t28 58.5t42.5 24q48 0 48 -78q0 -79 -76 -211q26 -141 89 -232q100 6 158 19q1 0 3.5 0.5t3.5 0.5q10 0 16.5 -7.5t6.5 -17.5q0 -21 -19 -29q-6 -2 -63.5 -6t-68.5 -6q63 -55 132 -71q7 -2 20 -3t19 -3q24 -5 24 -27zM473 599q0 14 -3 21 q-17 -18 -26.5 -60t-6.5 -71l1 -12q35 77 35 122zM473 161q-42 80 -65 169q-49 -74 -129 -176q107 2 194 7zM558 772q0 -20 -21.5 -40t-42.5 -20q-12 0 -20 4.5t-18 16t-14 14.5q-5 -3 -19 -17.5t-24 -14.5t-16.5 7t-6.5 17q0 20 23.5 40.5t43.5 20.5q7 0 12.5 -2t11.5 -6.5 t9.5 -7.5t10 -10t8.5 -9q2 2 9.5 12.5t14 15.5t14.5 5q10 0 17.5 -7.5t7.5 -18.5z" />
<glyph unicode="&#xc4;" horiz-adv-x="767" d="M770 13q0 -24 -30 -24q-66 0 -127.5 33t-106.5 87q-3 1 -10 1q-14 0 -39.5 -2t-34.5 -2q-75 -3 -152 -3h-35q-173 -198 -220 -198q-14 0 -26 9t-12 23q0 16 13 24.5t30 6.5q63 42 150 135q-201 0 -201 53q0 10 8 18t19 8q7 0 15 -4q63 -24 206 -24q83 97 177 242 q-6 58 -6 87q0 22 4.5 53t14 65.5t28 58.5t42.5 24q48 0 48 -78q0 -79 -76 -211q26 -141 89 -232q100 6 158 19q1 0 3.5 0.5t3.5 0.5q10 0 16.5 -7.5t6.5 -17.5q0 -21 -19 -29q-6 -2 -63.5 -6t-68.5 -6q63 -55 132 -71q7 -2 20 -3t19 -3q24 -5 24 -27zM473 599q0 14 -3 21 q-17 -18 -26.5 -60t-6.5 -71l1 -12q35 77 35 122zM473 161q-42 80 -65 169q-49 -74 -129 -176q107 2 194 7zM604 789q0 -14 -17.5 -27.5t-32.5 -13.5q-14 0 -24 7.5t-10 20.5q0 14 15.5 27.5t28.5 13.5q15 0 27.5 -7t12.5 -21zM450 790q0 -16 -18.5 -30t-34.5 -14 q-11 0 -18.5 7t-7.5 18q0 18 16.5 33t34.5 15q11 0 19.5 -9t8.5 -20z" />
<glyph unicode="&#xc5;" horiz-adv-x="767" d="M770 13q0 -24 -30 -24q-66 0 -127.5 33t-106.5 87q-3 1 -10 1q-14 0 -39.5 -2t-34.5 -2q-75 -3 -152 -3h-35q-173 -198 -220 -198q-14 0 -26 9t-12 23q0 16 13 24.5t30 6.5q63 42 150 135q-201 0 -201 53q0 10 8 18t19 8q7 0 15 -4q63 -24 206 -24q83 97 177 242 q-6 58 -6 87q0 22 4.5 53t14 65.5t28 58.5t42.5 24q48 0 48 -78q0 -79 -76 -211q26 -141 89 -232q100 6 158 19q1 0 3.5 0.5t3.5 0.5q10 0 16.5 -7.5t6.5 -17.5q0 -21 -19 -29q-6 -2 -63.5 -6t-68.5 -6q63 -55 132 -71q7 -2 20 -3t19 -3q24 -5 24 -27zM473 599q0 14 -3 21 q-17 -18 -26.5 -60t-6.5 -71l1 -12q35 77 35 122zM473 161q-42 80 -65 169q-49 -74 -129 -176q107 2 194 7zM556 783q0 -30 -21 -51t-51 -21t-51 21t-21 51t21 51t51 21t51 -21t21 -51zM524 783q0 17 -12 28.5t-28 11.5t-28 -11.5t-12 -28.5t12 -28.5t28 -11.5t28 11.5 t12 28.5z" />
<glyph unicode="&#xc6;" horiz-adv-x="1232" d="M-21 -31h5q77 39 173 126q-172 27 -172 69q0 13 11 23t24 10q6 0 14 -4q82 -41 177 -49q88 85 246 269q4 17 11.5 65.5t13.5 71t22.5 56.5t41.5 59q16 18 40 18q16 0 27 -10t11 -26q0 -60 -33 -129q43 39 126.5 58.5t159.5 19.5q94 0 180 -26.5t130 -88.5q7 -11 7 -21 q0 -18 -18.5 -27.5t-37.5 -9.5q-35 0 -35 23q0 13 12 18q-19 31 -66.5 50.5t-91 25.5t-86.5 6q-145 0 -217 -50q-38 -27 -38 -51t27.5 -45.5t69.5 -36t72.5 -23t56.5 -13.5q40 8 77 8q87 0 87 -37q0 -14 -11.5 -22t-25.5 -8q-13 0 -40 3.5t-41 3.5q-78 0 -171 -36.5 t-152 -89.5q47 3 119 20h7q9 0 15.5 -6.5t6.5 -15.5q0 -25 -24 -32q-48 -15 -149 -24q7 -64 185 -64t392 84q6 2 11 2q9 0 15.5 -7t6.5 -16q0 -32 -98.5 -60.5t-197 -41.5t-141.5 -13q-37 0 -55 2q6 -6 6 -14q0 -13 -11 -21t-24 -8q-30 0 -60.5 21t-52.5 49q-53 30 -49 80 q-62 -2 -92 -2q-65 0 -147 5q-50 -50 -133 -116.5t-116 -66.5q-15 0 -25.5 9.5t-10.5 24.5q0 27 36 31zM579 633q-43 -41 -65 -161q64 98 65 161zM511 394v-24q0 -109 10 -185q71 66 222 116q-24 7 -46.5 15t-50.5 22.5t-47.5 31t-31.5 40t-8 49.5q-25 -36 -48 -65zM339 136 q44 0 132 4q-12 69 -14 193l-175 -196q19 -1 57 -1z" />
<glyph unicode="&#xc7;" horiz-adv-x="654" d="M619 109q10 0 16.5 -7t6.5 -17q0 -15 -15 -26q-59 -40 -143.5 -64t-158.5 -24q-25 0 -51 3q8 -4 8 -11q0 -4 -12.5 -15.5t-12.5 -24.5q0 -8 5.5 -22.5t5.5 -22.5q0 -14 -14.5 -29.5t-29.5 -15.5q-14 0 -14 12q0 7 10.5 16t10.5 18q0 8 -5 23t-5 23q0 16 12.5 33t28.5 18 q-69 10 -129 38t-103.5 80.5t-43.5 119.5q0 112 95.5 224.5t206.5 140.5q24 36 45 36q10 0 17 -7.5t7 -18.5q67 -2 107 -36t40 -99q0 -73 -49.5 -128t-121.5 -55q-53 0 -82 34t-29 88q0 56 29 119q-80 -37 -143 -122t-63 -169q0 -65 48 -113t111 -69t125 -21q129 0 275 86 q8 5 15 5zM327 535q-53 -77 -53 -136q0 -34 19 -57t52 -23q41 0 72 44.5t31 87.5q0 41 -27 63.5t-68 22.5q-8 0 -26 -2z" />
<glyph unicode="&#xc8;" horiz-adv-x="687" d="M663 85q0 -31 -95 -57.5t-190 -38.5t-137 -12q-256 0 -256 105q0 33 22 65t57.5 56.5t68.5 41t65 28.5q-30 8 -58.5 19.5t-61.5 29.5t-53 44t-20 56q0 42 35.5 73.5t89.5 46.5t101.5 21.5t87.5 6.5q95 0 181.5 -26.5t132.5 -88.5q8 -12 8 -21q0 -18 -18 -27t-37 -9 q-35 0 -35 22q0 12 11 17q-30 44 -104 63.5t-144 19.5q-56 0 -117.5 -12t-96.5 -38q-36 -26 -36 -49q0 -24 28 -46.5t70.5 -37.5t75 -24t57.5 -14q49 9 83 9q81 0 81 -37q0 -14 -11 -21.5t-25 -7.5q-15 0 -46 3t-46 3t-22 -1q-53 -6 -104 -24q-29 -10 -62 -27.5t-65 -46.5 t-32 -56q0 -26 46 -43t87.5 -21t73.5 -4q167 0 377 80q8 2 11 2q9 0 15.5 -6.5t6.5 -15.5zM425 653q0 -10 -6.5 -16t-16.5 -6q-8 0 -29 16.5t-46.5 39t-29.5 25.5q-12 10 -12 24q0 11 6.5 19t17.5 8q8 0 28 -16.5t45.5 -41.5t27.5 -26q15 -13 15 -26z" />
<glyph unicode="&#xc9;" horiz-adv-x="687" d="M663 85q0 -31 -95 -57.5t-190 -38.5t-137 -12q-256 0 -256 105q0 33 22 65t57.5 56.5t68.5 41t65 28.5q-30 8 -58.5 19.5t-61.5 29.5t-53 44t-20 56q0 42 35.5 73.5t89.5 46.5t101.5 21.5t87.5 6.5q95 0 181.5 -26.5t132.5 -88.5q8 -12 8 -21q0 -18 -18 -27t-37 -9 q-35 0 -35 22q0 12 11 17q-30 44 -104 63.5t-144 19.5q-56 0 -117.5 -12t-96.5 -38q-36 -26 -36 -49q0 -24 28 -46.5t70.5 -37.5t75 -24t57.5 -14q49 9 83 9q81 0 81 -37q0 -14 -11 -21.5t-25 -7.5q-15 0 -46 3t-46 3t-22 -1q-53 -6 -104 -24q-29 -10 -62 -27.5t-65 -46.5 t-32 -56q0 -26 46 -43t87.5 -21t73.5 -4q167 0 377 80q8 2 11 2q9 0 15.5 -6.5t6.5 -15.5zM472 730q0 -19 -14 -27q-2 -2 -31 -21.5t-51 -32t-31 -12.5t-15.5 6.5t-6.5 15.5q0 16 18 29q96 69 108 69q11 0 17 -8t6 -19z" />
<glyph unicode="&#xca;" horiz-adv-x="687" d="M663 85q0 -31 -95 -57.5t-190 -38.5t-137 -12q-256 0 -256 105q0 33 22 65t57.5 56.5t68.5 41t65 28.5q-30 8 -58.5 19.5t-61.5 29.5t-53 44t-20 56q0 42 35.5 73.5t89.5 46.5t101.5 21.5t87.5 6.5q95 0 181.5 -26.5t132.5 -88.5q8 -12 8 -21q0 -18 -18 -27t-37 -9 q-35 0 -35 22q0 12 11 17q-30 44 -104 63.5t-144 19.5q-56 0 -117.5 -12t-96.5 -38q-36 -26 -36 -49q0 -24 28 -46.5t70.5 -37.5t75 -24t57.5 -14q49 9 83 9q81 0 81 -37q0 -14 -11 -21.5t-25 -7.5q-15 0 -46 3t-46 3t-22 -1q-53 -6 -104 -24q-29 -10 -62 -27.5t-65 -46.5 t-32 -56q0 -26 46 -43t87.5 -21t73.5 -4q167 0 377 80q8 2 11 2q9 0 15.5 -6.5t6.5 -15.5zM494 635q0 -9 -6 -15t-15 -6q-8 0 -25 11.5t-36.5 27.5t-24.5 19q-1 -1 -24.5 -16.5t-41 -25t-25.5 -9.5t-14 5.5t-6 13.5q0 16 49 51t66 35q6 0 15 -4.5t20.5 -13.5t18.5 -16 l20 -17q12 -11 13 -12q16 -12 16 -28z" />
<glyph unicode="&#xcb;" horiz-adv-x="687" d="M663 85q0 -31 -95 -57.5t-190 -38.5t-137 -12q-256 0 -256 105q0 33 22 65t57.5 56.5t68.5 41t65 28.5q-30 8 -58.5 19.5t-61.5 29.5t-53 44t-20 56q0 42 35.5 73.5t89.5 46.5t101.5 21.5t87.5 6.5q95 0 181.5 -26.5t132.5 -88.5q8 -12 8 -21q0 -18 -18 -27t-37 -9 q-35 0 -35 22q0 12 11 17q-30 44 -104 63.5t-144 19.5q-56 0 -117.5 -12t-96.5 -38q-36 -26 -36 -49q0 -24 28 -46.5t70.5 -37.5t75 -24t57.5 -14q49 9 83 9q81 0 81 -37q0 -14 -11 -21.5t-25 -7.5q-15 0 -46 3t-46 3t-22 -1q-53 -6 -104 -24q-29 -10 -62 -27.5t-65 -46.5 t-32 -56q0 -26 46 -43t87.5 -21t73.5 -4q167 0 377 80q8 2 11 2q9 0 15.5 -6.5t6.5 -15.5zM502 696q0 -14 -17.5 -27.5t-32.5 -13.5q-14 0 -24 7.5t-10 20.5q0 14 15.5 27.5t28.5 13.5q15 0 27.5 -7t12.5 -21zM348 697q0 -16 -18.5 -30t-34.5 -14q-11 0 -18.5 7t-7.5 18 q0 18 16.5 33t34.5 15q11 0 19.5 -9t8.5 -20z" />
<glyph unicode="&#xcc;" horiz-adv-x="459" d="M448 544q0 -11 -9 -19.5t-20 -8.5t-33 6.5t-35 6.5q-39 0 -71 -4q-36 -157 -36 -335q0 -67 7 -123q46 7 100 7q75 0 75 -32q0 -12 -10.5 -21t-22.5 -9q-13 0 -37 5t-36 5q-29 0 -56 -6q0 -24 -32 -24q-21 0 -28 15q-95 -31 -146 -31q-70 0 -70 55q0 37 25 37 q11 0 16.5 -6.5t7 -14.5t10.5 -14.5t25 -6.5q24 0 119 27q-5 55 -5 99q0 116 37 367q-59 -8 -112 -8q-88 0 -88 38q0 15 16.5 28.5t31.5 13.5q12 0 18 -8t3 -19q11 -3 34 -3q43 0 106 9q8 56 37 56q22 0 22 -25q0 -7 -2 -25q36 4 83 4q76 0 76 -36zM347 700q0 -10 -6.5 -16 t-16.5 -6q-8 0 -29 16.5t-46.5 39t-29.5 25.5q-12 10 -12 24q0 11 6.5 19t17.5 8q8 0 28 -16.5t45.5 -41.5t27.5 -26q15 -13 15 -26z" />
<glyph unicode="&#xcd;" horiz-adv-x="459" d="M448 544q0 -11 -9 -19.5t-20 -8.5t-33 6.5t-35 6.5q-39 0 -71 -4q-36 -157 -36 -335q0 -67 7 -123q46 7 100 7q75 0 75 -32q0 -12 -10.5 -21t-22.5 -9q-13 0 -37 5t-36 5q-29 0 -56 -6q0 -24 -32 -24q-21 0 -28 15q-95 -31 -146 -31q-70 0 -70 55q0 37 25 37 q11 0 16.5 -6.5t7 -14.5t10.5 -14.5t25 -6.5q24 0 119 27q-5 55 -5 99q0 116 37 367q-59 -8 -112 -8q-88 0 -88 38q0 15 16.5 28.5t31.5 13.5q12 0 18 -8t3 -19q11 -3 34 -3q43 0 106 9q8 56 37 56q22 0 22 -25q0 -7 -2 -25q36 4 83 4q76 0 76 -36zM405 776q0 -19 -14 -27 q-2 -2 -31 -21.5t-51 -32t-31 -12.5t-15.5 6.5t-6.5 15.5q0 16 18 29q96 69 108 69q11 0 17 -8t6 -19z" />
<glyph unicode="&#xce;" horiz-adv-x="459" d="M448 544q0 -11 -9 -19.5t-20 -8.5t-33 6.5t-35 6.5q-39 0 -71 -4q-36 -157 -36 -335q0 -67 7 -123q46 7 100 7q75 0 75 -32q0 -12 -10.5 -21t-22.5 -9q-13 0 -37 5t-36 5q-29 0 -56 -6q0 -24 -32 -24q-21 0 -28 15q-95 -31 -146 -31q-70 0 -70 55q0 37 25 37 q11 0 16.5 -6.5t7 -14.5t10.5 -14.5t25 -6.5q24 0 119 27q-5 55 -5 99q0 116 37 367q-59 -8 -112 -8q-88 0 -88 38q0 15 16.5 28.5t31.5 13.5q12 0 18 -8t3 -19q11 -3 34 -3q43 0 106 9q8 56 37 56q22 0 22 -25q0 -7 -2 -25q36 4 83 4q76 0 76 -36zM396 688q0 -9 -6 -15 t-15 -6q-8 0 -25 11.5t-36.5 27.5t-24.5 19q-1 -1 -24.5 -16.5t-41 -25t-25.5 -9.5t-14 5.5t-6 13.5q0 16 49 51t66 35q6 0 15 -4.5t20.5 -13.5t19.5 -16l19 -18q12 -10 13 -11q16 -12 16 -28z" />
<glyph unicode="&#xcf;" horiz-adv-x="459" d="M448 544q0 -11 -9 -19.5t-20 -8.5t-33 6.5t-35 6.5q-39 0 -71 -4q-36 -157 -36 -335q0 -67 7 -123q46 7 100 7q75 0 75 -32q0 -12 -10.5 -21t-22.5 -9q-13 0 -37 5t-36 5q-29 0 -56 -6q0 -24 -32 -24q-21 0 -28 15q-95 -31 -146 -31q-70 0 -70 55q0 37 25 37 q11 0 16.5 -6.5t7 -14.5t10.5 -14.5t25 -6.5q24 0 119 27q-5 55 -5 99q0 116 37 367q-59 -8 -112 -8q-88 0 -88 38q0 15 16.5 28.5t31.5 13.5q12 0 18 -8t3 -19q11 -3 34 -3q43 0 106 9q8 56 37 56q22 0 22 -25q0 -7 -2 -25q36 4 83 4q76 0 76 -36zM402 734 q0 -14 -17.5 -27.5t-32.5 -13.5q-14 0 -24 7.5t-10 20.5q0 14 15.5 27.5t28.5 13.5q15 0 27.5 -7t12.5 -21zM248 735q0 -16 -18.5 -30t-34.5 -14q-11 0 -18.5 7t-7.5 18q0 18 16.5 33t34.5 15q11 0 19.5 -9t8.5 -20z" />
<glyph unicode="&#xd0;" horiz-adv-x="775" d="M739 266q0 -48 -26.5 -89.5t-69.5 -70t-87 -47.5t-90 -30q-92 -23 -207 -25q1 -4 1 -12q0 -14 -7.5 -24.5t-20.5 -10.5q-18 0 -28 15.5t-13 34.5q-48 6 -97 31.5t-49 65.5q0 28 34 28q16 0 25.5 -9.5t15 -21t22 -23.5t43.5 -16q-8 106 -5 153q-63 -2 -90 3q-40 7 -40 35 q0 13 8.5 21.5t20.5 4.5q65 -17 104 -16q9 87 35 178q-51 -5 -132 -35.5t-81 -67.5q0 -25 -15.5 -35.5t-31.5 -1t-16 32.5q0 36 33.5 66.5t85 48.5t94 28t77.5 14q20 59 48 59q13 0 20.5 -11t7.5 -24q0 -6 -2 -18q47 -1 97 -7t112.5 -22.5t110 -40.5t80.5 -66t33 -95z M687 261q0 52 -45 90.5t-113 56.5t-127.5 26t-109.5 8q-13 0 -19 -1q-25 -41 -37 -175q72 6 107 6q76 0 76 -35q0 -11 -7.5 -18t-17.5 -7t-33 5.5t-40 5.5q-40 0 -88 -5q-5 -108 13 -162q125 -6 240 27.5t168 96.5q33 38 33 81z" />
<glyph unicode="&#xd1;" horiz-adv-x="675" d="M694 22q0 -28 -45 -45.5t-79 -17.5q-64 0 -99 43t-35 108q0 45 15.5 134t15.5 134q0 53 -33 53t-72 -34t-72.5 -83.5t-58.5 -93.5t-38 -76q-9 -20 -14.5 -56.5t-9.5 -48.5q-8 -27 -32 -27q-29 0 -29 45q0 46 29.5 159.5t29.5 175.5q0 54 -21 100t-68 46q-27 0 -50.5 -13 t-36.5 -28t-27 -28t-23 -13q-10 0 -16.5 7.5t-6.5 17.5q0 11 6 18q23 36 70.5 63.5t89.5 27.5q69 0 104 -54t35 -126q0 -52 -12 -121q21 33 43.5 63t54 64t67 54.5t68.5 20.5q40 0 61 -32.5t21 -75.5t-17 -127.5t-17 -127.5q0 -48 23 -80.5t69 -32.5q23 0 53 14t36 14 q9 0 15 -6t6 -15zM478 633q0 -18 -30 -42.5t-49 -24.5q-5 0 -10 1t-10.5 4t-8.5 4.5t-9 6.5t-8 6.5t-8 7.5l-7 7q-2 -2 -10.5 -9t-13.5 -10.5t-12.5 -7.5t-13.5 -4q-9 0 -16 6.5t-7 15.5q0 18 28.5 39.5t47.5 21.5q5 0 9.5 -1t9.5 -3.5t8.5 -4.5t8.5 -6.5t7 -6.5t7.5 -7 t6.5 -6q2 2 11 10l15 13q6 5 14 9.5t13 4.5q10 0 18.5 -7t8.5 -17z" />
<glyph unicode="&#xd2;" horiz-adv-x="684" d="M642 312q0 -93 -53.5 -171.5t-137.5 -121.5t-176 -43q-115 0 -201.5 78t-86.5 192q0 83 50 166q-4 5 -4 13q0 15 15 28q50 52 137 84t165 32q117 0 204.5 -71.5t87.5 -185.5zM591 304q0 58 -29.5 106t-81.5 76q-7 -15 -23 -15q-5 0 -48.5 20t-83.5 20q-110 0 -198.5 -74 t-88.5 -182q0 -103 76.5 -164t181.5 -61q113 0 204 81.5t91 192.5zM418 644q0 -10 -6.5 -16t-16.5 -6q-8 0 -29 16.5t-46.5 39t-29.5 25.5q-12 10 -12 24q0 11 6.5 19t17.5 8q8 0 28 -16.5t45.5 -41.5t27.5 -26q15 -13 15 -26z" />
<glyph unicode="&#xd3;" horiz-adv-x="684" d="M642 312q0 -93 -53.5 -171.5t-137.5 -121.5t-176 -43q-115 0 -201.5 78t-86.5 192q0 83 50 166q-4 5 -4 13q0 15 15 28q50 52 137 84t165 32q117 0 204.5 -71.5t87.5 -185.5zM591 304q0 58 -29.5 106t-81.5 76q-7 -15 -23 -15q-5 0 -48.5 20t-83.5 20q-110 0 -198.5 -74 t-88.5 -182q0 -103 76.5 -164t181.5 -61q113 0 204 81.5t91 192.5zM451 729q0 -19 -14 -27q-2 -2 -31 -21.5t-51 -32t-31 -12.5t-15.5 6.5t-6.5 15.5q0 16 18 29q96 69 108 69q11 0 17 -8t6 -19z" />
<glyph unicode="&#xd4;" horiz-adv-x="684" d="M642 312q0 -93 -53.5 -171.5t-137.5 -121.5t-176 -43q-115 0 -201.5 78t-86.5 192q0 83 50 166q-4 5 -4 13q0 15 15 28q50 52 137 84t165 32q117 0 204.5 -71.5t87.5 -185.5zM591 304q0 58 -29.5 106t-81.5 76q-7 -15 -23 -15q-5 0 -48.5 20t-83.5 20q-110 0 -198.5 -74 t-88.5 -182q0 -103 76.5 -164t181.5 -61q113 0 204 81.5t91 192.5zM473 638q0 -9 -6 -15t-15 -6q-8 0 -25 11.5t-36.5 27.5t-24.5 19q-1 -1 -24.5 -16.5t-41 -25t-25.5 -9.5t-14 5.5t-6 13.5q0 16 49 51t66 35q6 0 15 -4.5t20.5 -13.5t19.5 -16l19 -17q12 -11 13 -12 q16 -12 16 -28z" />
<glyph unicode="&#xd5;" horiz-adv-x="684" d="M642 312q0 -93 -53.5 -171.5t-137.5 -121.5t-176 -43q-115 0 -201.5 78t-86.5 192q0 83 50 166q-4 5 -4 13q0 15 15 28q50 52 137 84t165 32q117 0 204.5 -71.5t87.5 -185.5zM591 304q0 58 -29.5 106t-81.5 76q-7 -15 -23 -15q-5 0 -48.5 20t-83.5 20q-110 0 -198.5 -74 t-88.5 -182q0 -103 76.5 -164t181.5 -61q113 0 204 81.5t91 192.5zM496 694q0 -18 -30 -42.5t-49 -24.5q-5 0 -10 1t-10.5 4t-8.5 4.5t-9 6.5t-8 6.5t-8 7.5l-7 7q-2 -2 -10.5 -9t-13.5 -10.5t-12.5 -7.5t-13.5 -4q-9 0 -16 6.5t-7 15.5q0 18 28.5 39.5t47.5 21.5 q5 0 9.5 -1t9.5 -3.5t8.5 -4.5t8.5 -6.5t7 -6.5t7.5 -7t6.5 -6q2 2 11 10l15 13q6 5 14 9.5t13 4.5q10 0 18.5 -7t8.5 -17z" />
<glyph unicode="&#xd6;" horiz-adv-x="684" d="M642 312q0 -93 -53.5 -171.5t-137.5 -121.5t-176 -43q-115 0 -201.5 78t-86.5 192q0 83 50 166q-4 5 -4 13q0 15 15 28q50 52 137 84t165 32q117 0 204.5 -71.5t87.5 -185.5zM591 304q0 58 -29.5 106t-81.5 76q-7 -15 -23 -15q-5 0 -48.5 20t-83.5 20q-110 0 -198.5 -74 t-88.5 -182q0 -103 76.5 -164t181.5 -61q113 0 204 81.5t91 192.5zM477 686q0 -14 -17.5 -27.5t-32.5 -13.5q-14 0 -24 7.5t-10 20.5q0 14 15.5 27.5t28.5 13.5q15 0 27.5 -7t12.5 -21zM323 687q0 -16 -18.5 -30t-34.5 -14q-11 0 -18.5 7t-7.5 18q0 18 16.5 33t34.5 15 q11 0 19.5 -9t8.5 -20z" />
<glyph unicode="&#xd7;" d="M197 167l-96 -96q-4 -4 -11 0l-24 23q-6 6 0 12l96 96l-96 96q-6 6 0 11l24 23q7 4 11 0l96 -96l96 96q4 4 11 0l24 -23q6 -5 0 -11l-96 -96l96 -96q6 -6 0 -12l-24 -23q-6 -5 -11 0z" />
<glyph unicode="&#xd8;" horiz-adv-x="684" d="M642 312q0 -93 -53.5 -171.5t-137.5 -121.5t-176 -43q-95 0 -174 56l-23 -24l-30 -30q-12 -13 -25 -23q-10 -7 -21 -7q-10 0 -19.5 8t-9.5 18q0 16 17 29q26 19 72 63q-75 75 -75 180q0 83 50 166q-4 5 -4 13q0 15 15 28q50 52 137 84t165 32q90 0 159 -39q4 4 24 26 l38 41q18 20 19 20q3 1 11 1q31 0 31 -23q0 -7 -10.5 -22.5t-21.5 -27.5l-27 -30q-16 -17 -18 -19q87 -74 87 -184zM591 304q0 92 -72 154l-377 -386q69 -42 154 -42q113 0 204 81.5t91 192.5zM453 471q-11 2 -27 13q-43 27 -101 27q-110 0 -198.5 -74t-88.5 -182 q0 -90 62 -152l184 190z" />
<glyph unicode="&#xd9;" horiz-adv-x="686" d="M704 60q0 -30 -44 -52.5t-77 -22.5q-118 0 -124 161q-137 -199 -248 -199q-49 0 -72.5 32.5t-23.5 83.5q0 71 52 203.5t52 184.5q0 25 -20 25q-5 0 -20 -5q-49 -18 -97 -58t-80 -87q8 -4 8 -15q0 -12 -26 -28.5t-40 -16.5q-11 0 -18 8t-7 19v4q0 35 48.5 85.5t106 88.5 t94.5 50q27 9 47 9q30 0 47 -18t17 -48q0 -47 -53 -187t-53 -206q0 -28 12.5 -49.5t38.5 -21.5q36 0 83.5 43t77.5 85t55 83q32 53 36 71q1 4 4.5 24.5t7.5 38.5l10 44q6 25 12.5 45t14 38.5t17 29t18.5 10.5q12 0 20.5 -9.5t8.5 -21.5q0 -48 -37.5 -144t-37.5 -166 q0 -21 3 -41.5t10.5 -42t23.5 -35t38 -13.5q28 0 58.5 22t36.5 22q20 0 20 -23zM457 568q0 -10 -6.5 -16t-16.5 -6q-8 0 -29 16.5t-46.5 39t-29.5 25.5q-12 10 -12 24q0 11 6.5 19t17.5 8q8 0 28 -16.5t45.5 -41.5t27.5 -26q15 -13 15 -26z" />
<glyph unicode="&#xda;" horiz-adv-x="686" d="M704 60q0 -30 -44 -52.5t-77 -22.5q-118 0 -124 161q-137 -199 -248 -199q-49 0 -72.5 32.5t-23.5 83.5q0 71 52 203.5t52 184.5q0 25 -20 25q-5 0 -20 -5q-49 -18 -97 -58t-80 -87q8 -4 8 -15q0 -12 -26 -28.5t-40 -16.5q-11 0 -18 8t-7 19v4q0 35 48.5 85.5t106 88.5 t94.5 50q27 9 47 9q30 0 47 -18t17 -48q0 -47 -53 -187t-53 -206q0 -28 12.5 -49.5t38.5 -21.5q36 0 83.5 43t77.5 85t55 83q32 53 36 71q1 4 4.5 24.5t7.5 38.5l10 44q6 25 12.5 45t14 38.5t17 29t18.5 10.5q12 0 20.5 -9.5t8.5 -21.5q0 -48 -37.5 -144t-37.5 -166 q0 -21 3 -41.5t10.5 -42t23.5 -35t38 -13.5q28 0 58.5 22t36.5 22q20 0 20 -23zM518 645q0 -19 -14 -27q-2 -2 -31 -21.5t-51 -32t-31 -12.5t-15.5 6.5t-6.5 15.5q0 16 18 29q96 69 108 69q11 0 17 -8t6 -19z" />
<glyph unicode="&#xdb;" horiz-adv-x="686" d="M704 60q0 -30 -44 -52.5t-77 -22.5q-118 0 -124 161q-137 -199 -248 -199q-49 0 -72.5 32.5t-23.5 83.5q0 71 52 203.5t52 184.5q0 25 -20 25q-5 0 -20 -5q-49 -18 -97 -58t-80 -87q8 -4 8 -15q0 -12 -26 -28.5t-40 -16.5q-11 0 -18 8t-7 19v4q0 35 48.5 85.5t106 88.5 t94.5 50q27 9 47 9q30 0 47 -18t17 -48q0 -47 -53 -187t-53 -206q0 -28 12.5 -49.5t38.5 -21.5q36 0 83.5 43t77.5 85t55 83q32 53 36 71q1 4 4.5 24.5t7.5 38.5l10 44q6 25 12.5 45t14 38.5t17 29t18.5 10.5q12 0 20.5 -9.5t8.5 -21.5q0 -48 -37.5 -144t-37.5 -166 q0 -21 3 -41.5t10.5 -42t23.5 -35t38 -13.5q28 0 58.5 22t36.5 22q20 0 20 -23zM522 568q0 -9 -6 -15t-15 -6q-8 0 -25 11.5t-36.5 27.5t-24.5 19q-1 -1 -24.5 -16.5t-41 -25t-25.5 -9.5t-14 5.5t-6 13.5q0 16 49 51t66 35q6 0 15 -4.5t20.5 -13.5t19.5 -16l19 -17 q12 -11 13 -12q16 -12 16 -28z" />
<glyph unicode="&#xdc;" horiz-adv-x="686" d="M704 60q0 -30 -44 -52.5t-77 -22.5q-118 0 -124 161q-137 -199 -248 -199q-49 0 -72.5 32.5t-23.5 83.5q0 71 52 203.5t52 184.5q0 25 -20 25q-5 0 -20 -5q-49 -18 -97 -58t-80 -87q8 -4 8 -15q0 -12 -26 -28.5t-40 -16.5q-11 0 -18 8t-7 19v4q0 35 48.5 85.5t106 88.5 t94.5 50q27 9 47 9q30 0 47 -18t17 -48q0 -47 -53 -187t-53 -206q0 -28 12.5 -49.5t38.5 -21.5q36 0 83.5 43t77.5 85t55 83q32 53 36 71q1 4 4.5 24.5t7.5 38.5l10 44q6 25 12.5 45t14 38.5t17 29t18.5 10.5q12 0 20.5 -9.5t8.5 -21.5q0 -48 -37.5 -144t-37.5 -166 q0 -21 3 -41.5t10.5 -42t23.5 -35t38 -13.5q28 0 58.5 22t36.5 22q20 0 20 -23zM548 636q0 -14 -17.5 -27.5t-32.5 -13.5q-14 0 -24 7.5t-10 20.5q0 14 15.5 27.5t28.5 13.5q15 0 27.5 -7t12.5 -21zM394 637q0 -16 -18.5 -30t-34.5 -14q-11 0 -18.5 7t-7.5 18q0 18 16.5 33 t34.5 15q11 0 19.5 -9t8.5 -20z" />
<glyph unicode="&#xdd;" horiz-adv-x="569" d="M580 146q0 -31 -29 -32q-26 -18 -80 -91q1 -32 1 -96q0 -252 -102 -252q-38 0 -57.5 29.5t-19.5 68.5q0 102 125 261q-1 36 -7.5 104t-7.5 99q-55 -65 -129 -113.5t-143 -48.5q-59 0 -93 34.5t-34 93.5q0 74 45.5 180t98.5 168q13 15 29 15q26 0 26 -27 q0 -20 -15.5 -46.5t-34.5 -25.5q-40 -58 -69.5 -126t-29.5 -123q0 -42 23 -67.5t65 -25.5q68 0 141.5 60.5t113.5 130.5q5 8 13.5 59.5t24.5 92.5t43 41q14 0 21.5 -9.5t7.5 -23.5q0 -54 -28 -116q-20 -43 -20 -44q-2 -7 -2 -47q0 -28 10 -173q61 73 84 73q10 0 19.5 -6.5 t9.5 -16.5zM422 -84l-1 38q-76 -108 -76 -181q0 -18 6.5 -35.5t21.5 -17.5q17 0 28 24.5t15 61t5.5 64t0.5 46.5zM449 684q0 -19 -14 -27q-2 -2 -31 -21.5t-51 -32t-31 -12.5t-15.5 6.5t-6.5 15.5q0 16 18 29q96 69 108 69q11 0 17 -8t6 -19z" />
<glyph unicode="&#xde;" horiz-adv-x="660" d="M640 306q0 -61 -47.5 -110t-111 -72.5t-124.5 -23.5q-58 0 -111.5 22t-69.5 51q-2 -90 0 -159q94 2 141 -17q31 -12 29 -30q-3 -22 -22 -24.5t-51.5 8.5t-34.5 11q-38 5 -54 2q-4 -20 -28 -20.5t-31 15.5q-16 0 -47.5 -4.5t-49 -6t-46.5 3.5q-31 9 -22 39q9 29 45 14 q17 -5 53 -3t59 7h3q2 234 14 344q-18 -1 -33 6t-15 24q0 27 59 50q8 70 17 114q-7 -1 -41.5 -5.5t-53.5 -4.5q-84 0 -84 40q0 10 7.5 20t18.5 13q12 4 22.5 -1.5t12.5 -20.5q37 -11 126 8q3 6 5.5 22.5t9 25t23.5 8.5q9 0 16 -6t7 -16q0 -4 -0.5 -9t-1.5 -11t-1 -9 q10 0 36 2.5t40 2.5q17 0 24.5 -0.5t25 -3t25.5 -11t8 -21.5q0 -12 -11 -22.5t-26 -1.5q-20 11 -60 11q-50 0 -68 -5h-3q-7 -29 -17 -103q73 14 170 14q44 0 88 -8t86 -25t68 -49t26 -75zM584 301q0 48 -63 76.5t-145 28.5q-129 0 -183 -18q-10 -70 -16 -188q13 16 35 16 q5 0 10.5 -3t9 -6t10.5 -10.5t11 -10.5q43 -37 113 -37q79 0 148.5 45.5t69.5 106.5z" />
<glyph unicode="&#xdf;" horiz-adv-x="332" d="M340 148q0 -5 -3.5 -12.5t-10.5 -15.5l-15 -16q-7 -9 -19 -18l-20 -18q-8 -7 -21 -16l-19 -15l-17 -13q-10 -7 -11 -8q-30 -23 -70 -23q-58 0 -91 37q2 -31 7 -52t21 -40.5t44 -22.5q33 -3 33 -22q0 -24 -46 -24q-113 0 -113 172q0 48 15 130t42 170.5t73.5 152 t99.5 63.5q31 0 48.5 -22.5t17.5 -54.5q0 -38 -21 -79.5t-46 -69.5l-46 -51q-21 -23 -21 -28t22.5 -30.5t46 -60.5t25.5 -62l21 22l33 32t21 14q8 0 14 -5.5t6 -13.5zM231 480q0 9 -5 17.5t-13 8.5q-11 0 -19 -8q-62 -47 -104.5 -183t-47.5 -237q6 3 11 3t28.5 -14t50.5 -14 q58 0 58 32q0 28 -45.5 80.5t-45.5 75.5q0 19 33 59.5t66 90t33 89.5z" />
<glyph unicode="&#xe0;" horiz-adv-x="338" d="M367 161v-6q-6 -52 -45.5 -97t-89.5 -45q-46 0 -73 46q-45 -73 -108 -73q-37 0 -62.5 26t-25.5 63q0 62 58.5 134.5t118.5 72.5q21 0 39 -11.5t18 -30.5q0 -8 -5 -16q7 -7 7 -19q0 -9 -3 -28t-3 -28q0 -18 3 -35.5t13.5 -34t27.5 -16.5q23 0 40 18.5t26 41.5t20.5 41.5 t23.5 18.5q20 0 20 -22zM148 223q-8 5 -18 5q-36 0 -75 -55t-39 -93q0 -18 11 -30t29 -12q32 0 57.5 36t25.5 70q0 6 -1.5 17t-1.5 16q0 29 12 46zM166 356q0 -10 -6.5 -16t-16.5 -6q-8 0 -29 16.5t-46.5 39t-29.5 25.5q-12 10 -12 24q0 11 6.5 19t17.5 8q8 0 28 -16.5 t45.5 -41.5t27.5 -26q15 -13 15 -26z" />
<glyph unicode="&#xe1;" horiz-adv-x="338" d="M367 161v-6q-6 -52 -45.5 -97t-89.5 -45q-46 0 -73 46q-45 -73 -108 -73q-37 0 -62.5 26t-25.5 63q0 62 58.5 134.5t118.5 72.5q21 0 39 -11.5t18 -30.5q0 -8 -5 -16q7 -7 7 -19q0 -9 -3 -28t-3 -28q0 -18 3 -35.5t13.5 -34t27.5 -16.5q23 0 40 18.5t26 41.5t20.5 41.5 t23.5 18.5q20 0 20 -22zM148 223q-8 5 -18 5q-36 0 -75 -55t-39 -93q0 -18 11 -30t29 -12q32 0 57.5 36t25.5 70q0 6 -1.5 17t-1.5 16q0 29 12 46zM249 428q0 -19 -14 -27q-2 -2 -31 -21.5t-51 -32t-31 -12.5t-15.5 6.5t-6.5 15.5q0 16 18 29q96 69 108 69q11 0 17 -8t6 -19 z" />
<glyph unicode="&#xe2;" horiz-adv-x="338" d="M367 161v-6q-6 -52 -45.5 -97t-89.5 -45q-46 0 -73 46q-45 -73 -108 -73q-37 0 -62.5 26t-25.5 63q0 62 58.5 134.5t118.5 72.5q21 0 39 -11.5t18 -30.5q0 -8 -5 -16q7 -7 7 -19q0 -9 -3 -28t-3 -28q0 -18 3 -35.5t13.5 -34t27.5 -16.5q23 0 40 18.5t26 41.5t20.5 41.5 t23.5 18.5q20 0 20 -22zM148 223q-8 5 -18 5q-36 0 -75 -55t-39 -93q0 -18 11 -30t29 -12q32 0 57.5 36t25.5 70q0 6 -1.5 17t-1.5 16q0 29 12 46zM229 333q0 -9 -6 -15t-15 -6q-8 0 -25 11.5t-36.5 27.5t-24.5 19q-1 -1 -24.5 -16.5t-41 -25t-25.5 -9.5t-14 5.5t-6 13.5 q0 16 49 51t66 35q6 0 15 -4.5t20.5 -13.5t18.5 -16l20 -17q12 -11 13 -12q16 -12 16 -28z" />
<glyph unicode="&#xe3;" horiz-adv-x="338" d="M367 161v-6q-6 -52 -45.5 -97t-89.5 -45q-46 0 -73 46q-45 -73 -108 -73q-37 0 -62.5 26t-25.5 63q0 62 58.5 134.5t118.5 72.5q21 0 39 -11.5t18 -30.5q0 -8 -5 -16q7 -7 7 -19q0 -9 -3 -28t-3 -28q0 -18 3 -35.5t13.5 -34t27.5 -16.5q23 0 40 18.5t26 41.5t20.5 41.5 t23.5 18.5q20 0 20 -22zM148 223q-8 5 -18 5q-36 0 -75 -55t-39 -93q0 -18 11 -30t29 -12q32 0 57.5 36t25.5 70q0 6 -1.5 17t-1.5 16q0 29 12 46zM230 387q0 -20 -21.5 -40t-42.5 -20q-12 0 -20 4.5t-18 16t-14 14.5q-5 -3 -19 -17.5t-24 -14.5t-16.5 7t-6.5 17 q0 20 23.5 40.5t43.5 20.5q7 0 12.5 -2t11.5 -6.5t9.5 -7.5t10 -10t8.5 -9q2 2 9.5 12.5t14 15.5t14.5 5q10 0 17.5 -7.5t7.5 -18.5z" />
<glyph unicode="&#xe4;" horiz-adv-x="338" d="M367 161v-6q-6 -52 -45.5 -97t-89.5 -45q-46 0 -73 46q-45 -73 -108 -73q-37 0 -62.5 26t-25.5 63q0 62 58.5 134.5t118.5 72.5q21 0 39 -11.5t18 -30.5q0 -8 -5 -16q7 -7 7 -19q0 -9 -3 -28t-3 -28q0 -18 3 -35.5t13.5 -34t27.5 -16.5q23 0 40 18.5t26 41.5t20.5 41.5 t23.5 18.5q20 0 20 -22zM148 223q-8 5 -18 5q-36 0 -75 -55t-39 -93q0 -18 11 -30t29 -12q32 0 57.5 36t25.5 70q0 6 -1.5 17t-1.5 16q0 29 12 46zM267 391q0 -14 -17.5 -27.5t-32.5 -13.5q-14 0 -24 7.5t-10 20.5q0 14 15.5 27.5t28.5 13.5q15 0 27.5 -7t12.5 -21zM113 392 q0 -16 -18.5 -30t-34.5 -14q-11 0 -18.5 7t-7.5 18q0 18 16.5 33t34.5 15q11 0 19.5 -9t8.5 -20z" />
<glyph unicode="&#xe5;" horiz-adv-x="338" d="M367 161v-6q-6 -52 -45.5 -97t-89.5 -45q-46 0 -73 46q-45 -73 -108 -73q-37 0 -62.5 26t-25.5 63q0 62 58.5 134.5t118.5 72.5q21 0 39 -11.5t18 -30.5q0 -8 -5 -16q7 -7 7 -19q0 -9 -3 -28t-3 -28q0 -18 3 -35.5t13.5 -34t27.5 -16.5q23 0 40 18.5t26 41.5t20.5 41.5 t23.5 18.5q20 0 20 -22zM148 223q-8 5 -18 5q-36 0 -75 -55t-39 -93q0 -18 11 -30t29 -12q32 0 57.5 36t25.5 70q0 6 -1.5 17t-1.5 16q0 29 12 46zM213 391q0 -30 -21 -51t-51 -21t-51 21t-21 51t21 51t51 21t51 -21t21 -51zM181 391q0 17 -11.5 28.5t-28.5 11.5 t-28.5 -11.5t-11.5 -28.5t11.5 -28.5t28.5 -11.5t28.5 11.5t11.5 28.5z" />
<glyph unicode="&#xe6;" horiz-adv-x="401" d="M420 111q0 -7 -3 -12q-22 -46 -69.5 -82t-94.5 -36q-33 0 -60 19t-39 50q-45 -64 -103 -64q-37 0 -62.5 26t-25.5 63q0 62 58.5 134.5t118.5 72.5q20 0 40 -12t17 -31q29 26 67 26q26 0 40 -18t14 -44q0 -45 -36 -81t-82 -39q14 -45 61 -45q38 0 65 21.5t54 61.5 q9 12 19 12q9 0 15 -6.5t6 -15.5zM270 193q0 15 -11 24h-2q-24 0 -40 -26t-19 -54q8 -2 11 -2q21 0 41 18.5t20 39.5zM175 211h-3q-7 0 -19 8.5t-23 8.5q-36 0 -75 -55t-39 -93q0 -18 11 -30t29 -12q30 0 52 30.5t41.5 81t25.5 61.5z" />
<glyph unicode="&#xe7;" horiz-adv-x="300" d="M288 163l1 2q9 12 20 12q21 0 21 -22q0 -4 -2 -12q-22 -54 -82.5 -94.5t-119.5 -40.5q-9 0 -13 1q2 -4 2 -7q0 -4 -12.5 -15.5t-12.5 -24.5q0 -8 5.5 -22.5t5.5 -22.5q0 -14 -14.5 -29.5t-29.5 -15.5q-14 0 -14 12q0 7 10.5 16t10.5 18q0 8 -5 23t-5 23q0 15 9.5 29.5 t23.5 19.5q-46 12 -74.5 49t-28.5 86q0 63 46.5 125.5t107.5 62.5q23 0 45 -18q12 1 17.5 -8t3.5 -21q6 -16 6 -41q0 -31 -11 -66t-34 -35q-29 0 -29 58q0 37 13 67q-10 12 -22 12q-36 0 -62.5 -44t-26.5 -82q0 -45 27.5 -73t72.5 -28q46 0 87 31.5t63 74.5z" />
<glyph unicode="&#xe8;" horiz-adv-x="230" d="M262 157q0 -7 -3 -11q-22 -46 -69.5 -82t-94.5 -36q-50 0 -79.5 36.5t-29.5 87.5q0 56 34 107.5t86 51.5q26 0 40.5 -17t14.5 -43q0 -45 -37 -82t-82 -39q11 -49 59 -49q26 0 50.5 15t38 30t33.5 42q8 11 18 11q9 0 15 -6.5t6 -15.5zM112 239q0 7 -4 16t-10 9 q-23 0 -39 -27t-19 -53q8 -2 12 -2q20 0 40 18.5t20 38.5zM128 387q0 -10 -6.5 -16t-16.5 -6q-8 0 -29 16.5t-46.5 39t-29.5 25.5q-12 10 -12 24q0 11 6.5 19t17.5 8q8 0 28 -16.5t45.5 -41.5t27.5 -26q15 -13 15 -26z" />
<glyph unicode="&#xe9;" horiz-adv-x="230" d="M262 157q0 -7 -3 -11q-22 -46 -69.5 -82t-94.5 -36q-50 0 -79.5 36.5t-29.5 87.5q0 56 34 107.5t86 51.5q26 0 40.5 -17t14.5 -43q0 -45 -37 -82t-82 -39q11 -49 59 -49q26 0 50.5 15t38 30t33.5 42q8 11 18 11q9 0 15 -6.5t6 -15.5zM112 239q0 7 -4 16t-10 9 q-23 0 -39 -27t-19 -53q8 -2 12 -2q20 0 40 18.5t20 38.5zM238 463q0 -19 -14 -27q-2 -2 -31 -21.5t-51 -32t-31 -12.5t-15.5 6.5t-6.5 15.5q0 16 18 29q96 69 108 69q11 0 17 -8t6 -19z" />
<glyph unicode="&#xea;" horiz-adv-x="230" d="M262 157q0 -7 -3 -11q-22 -46 -69.5 -82t-94.5 -36q-50 0 -79.5 36.5t-29.5 87.5q0 56 34 107.5t86 51.5q26 0 40.5 -17t14.5 -43q0 -45 -37 -82t-82 -39q11 -49 59 -49q26 0 50.5 15t38 30t33.5 42q8 11 18 11q9 0 15 -6.5t6 -15.5zM112 239q0 7 -4 16t-10 9 q-23 0 -39 -27t-19 -53q8 -2 12 -2q20 0 40 18.5t20 38.5zM196 359q0 -9 -6 -15t-15 -6q-8 0 -25 11.5t-36.5 27.5t-24.5 19q-1 -1 -24.5 -16.5t-41 -25t-25.5 -9.5t-14 5.5t-6 13.5q0 16 49 51t66 35q6 0 15 -4.5t20.5 -13.5t19.5 -16l19 -17q12 -11 13 -12q16 -12 16 -28z " />
<glyph unicode="&#xeb;" horiz-adv-x="230" d="M262 157q0 -7 -3 -11q-22 -46 -69.5 -82t-94.5 -36q-50 0 -79.5 36.5t-29.5 87.5q0 56 34 107.5t86 51.5q26 0 40.5 -17t14.5 -43q0 -45 -37 -82t-82 -39q11 -49 59 -49q26 0 50.5 15t38 30t33.5 42q8 11 18 11q9 0 15 -6.5t6 -15.5zM112 239q0 7 -4 16t-10 9 q-23 0 -39 -27t-19 -53q8 -2 12 -2q20 0 40 18.5t20 38.5zM240 421q0 -14 -17.5 -27.5t-32.5 -13.5q-14 0 -24 7.5t-10 20.5q0 14 15.5 27.5t28.5 13.5q15 0 27.5 -7t12.5 -21zM86 422q0 -16 -18.5 -30t-34.5 -14q-11 0 -18.5 7t-7.5 18q0 18 16.5 33t34.5 15q11 0 19.5 -9 t8.5 -20z" />
<glyph unicode="&#xec;" horiz-adv-x="169" d="M201 157q0 -26 -32 -66.5t-60 -62.5q-29 -21 -62 -21q-67 0 -67 93q0 19 1.5 38.5t5.5 48.5t14.5 47.5t26.5 18.5q11 0 17.5 -7.5t6.5 -18.5q0 -13 -9.5 -57t-9.5 -67q0 -45 25 -45q42 0 100 106q10 14 22 14q9 0 15 -6t6 -15zM73 328q0 -10 -6.5 -16t-16.5 -6 q-8 0 -29 16.5t-46.5 39t-29.5 25.5q-12 10 -12 24q0 11 6.5 19t17.5 8q8 0 28 -16.5t45.5 -41.5t27.5 -26q15 -13 15 -26z" />
<glyph unicode="&#xed;" horiz-adv-x="169" d="M201 157q0 -26 -32 -66.5t-60 -62.5q-29 -21 -62 -21q-67 0 -67 93q0 19 1.5 38.5t5.5 48.5t14.5 47.5t26.5 18.5q11 0 17.5 -7.5t6.5 -18.5q0 -13 -9.5 -57t-9.5 -67q0 -45 25 -45q42 0 100 106q10 14 22 14q9 0 15 -6t6 -15zM179 401q0 -19 -14 -27q-2 -2 -31 -21.5 t-51 -32t-31 -12.5t-15.5 6.5t-6.5 15.5q0 16 18 29q96 69 108 69q11 0 17 -8t6 -19z" />
<glyph unicode="&#xee;" horiz-adv-x="169" d="M201 157q0 -26 -32 -66.5t-60 -62.5q-29 -21 -62 -21q-67 0 -67 93q0 19 1.5 38.5t5.5 48.5t14.5 47.5t26.5 18.5q11 0 17.5 -7.5t6.5 -18.5q0 -13 -9.5 -57t-9.5 -67q0 -45 25 -45q42 0 100 106q10 14 22 14q9 0 15 -6t6 -15zM149 302q0 -9 -6 -15t-15 -6q-8 0 -25 11.5 t-36.5 27.5t-24.5 19q-1 -1 -24.5 -16.5t-41 -25t-25.5 -9.5t-14 5.5t-6 13.5q0 16 49 51t66 35q6 0 15 -4.5t20.5 -13.5t19.5 -16l19 -17q12 -11 13 -12q16 -12 16 -28z" />
<glyph unicode="&#xef;" horiz-adv-x="169" d="M201 157q0 -26 -32 -66.5t-60 -62.5q-29 -21 -62 -21q-67 0 -67 93q0 19 1.5 38.5t5.5 48.5t14.5 47.5t26.5 18.5q11 0 17.5 -7.5t6.5 -18.5q0 -13 -9.5 -57t-9.5 -67q0 -45 25 -45q42 0 100 106q10 14 22 14q9 0 15 -6t6 -15zM170 373q0 -14 -17.5 -27.5t-32.5 -13.5 q-14 0 -24 7.5t-10 20.5q0 14 15.5 27.5t28.5 13.5q15 0 27.5 -7t12.5 -21zM16 374q0 -16 -18.5 -30t-34.5 -14q-11 0 -18.5 7t-7.5 18q0 18 16.5 33t34.5 15q11 0 19.5 -9t8.5 -20z" />
<glyph unicode="&#xf0;" horiz-adv-x="435" d="M404 145q0 -55 -37 -95t-84.5 -56t-96.5 -16q-31 0 -65 9t-66.5 25.5t-54 47t-21.5 68.5t22.5 66t58.5 42.5t71.5 21t69.5 6.5q54 0 134 -26q-21 66 -73 115q-71 -55 -106 -63q-22 -6 -34 17q-12 24 12 34q46 13 89 43q-54 34 -105 22q-11 -3 -27.5 -18t-32.5 -15 q-12 0 -19.5 9.5t-7.5 19.5q0 29 36.5 46t69.5 17q64 0 130 -47q2 1 15.5 11.5t26 19t24.5 12.5q31 12 44 -8q7 -11 2 -22.5t-17 -15.5q-28 -9 -57 -30q47 -47 73 -110.5t26 -129.5zM350 153q0 17 -2 23q-10 14 -68.5 26t-83.5 12q-30 0 -64 -7.5t-65.5 -29.5t-31.5 -53 q0 -42 48.5 -69.5t102.5 -27.5q68 0 116 34t48 92z" />
<glyph unicode="&#xf1;" horiz-adv-x="333" d="M364 153q0 -5 -2 -13q-18 -51 -59.5 -102t-84.5 -51q-27 0 -43.5 10.5t-22.5 30t-8.5 39t-4 44.5t-4.5 39q-2 12 -10 12q-13 0 -34.5 -22.5t-39.5 -50t-36.5 -50t-27.5 -22.5q-11 0 -20.5 6t-9.5 17q0 9 11 24q8 11 13 47.5t5 58.5q0 11 -4.5 33.5t-4.5 32.5q0 14 9.5 23 t22.5 9q8 0 14 -4.5t9.5 -14t6 -18t3 -22.5t0.5 -21v-21v-15q56 63 99 63q30 0 42 -27t10.5 -59.5t5 -59.5t27.5 -27q25 0 46.5 33.5t39 67t31.5 33.5q21 0 21 -23zM225 336q0 -20 -21.5 -40t-42.5 -20q-12 0 -20 4.5t-18 16t-14 14.5q-5 -3 -19 -17.5t-24 -14.5t-16.5 7 t-6.5 17q0 20 23.5 40.5t43.5 20.5q7 0 12.5 -2t11.5 -6.5t9.5 -7.5t10 -10t8.5 -9q2 2 9.5 12.5t14 15.5t14.5 5q10 0 17.5 -7.5t7.5 -18.5z" />
<glyph unicode="&#xf2;" horiz-adv-x="339" d="M368 154q0 -33 -44.5 -54t-79.5 -17q-21 -40 -65 -66t-89 -26q-49 0 -81.5 35t-32.5 84q0 64 51.5 109t116.5 45q48 0 58 -16q29 1 46 -30.5t17 -62.5q0 -13 -3 -26q23 0 40 11.5t28 22.5t18 11q8 0 14 -6t6 -14zM213 159q0 13 -9.5 32.5t-20.5 19.5q-7 0 -7 -16 q0 -29 36 -53q1 6 1 17zM194 99q-63 40 -63 94q0 15 4 24q-44 -2 -73 -31t-29 -73q0 -31 18.5 -54t48.5 -23q26 0 52 19t42 44zM177 341q0 -10 -6.5 -16t-16.5 -6q-8 0 -29 16.5t-46.5 39t-29.5 25.5q-12 10 -12 24q0 11 6.5 19t17.5 8q8 0 28 -16.5t45.5 -41.5t27.5 -26 q15 -13 15 -26z" />
<glyph unicode="&#xf3;" horiz-adv-x="339" d="M368 154q0 -33 -44.5 -54t-79.5 -17q-21 -40 -65 -66t-89 -26q-49 0 -81.5 35t-32.5 84q0 64 51.5 109t116.5 45q48 0 58 -16q29 1 46 -30.5t17 -62.5q0 -13 -3 -26q23 0 40 11.5t28 22.5t18 11q8 0 14 -6t6 -14zM213 159q0 13 -9.5 32.5t-20.5 19.5q-7 0 -7 -16 q0 -29 36 -53q1 6 1 17zM194 99q-63 40 -63 94q0 15 4 24q-44 -2 -73 -31t-29 -73q0 -31 18.5 -54t48.5 -23q26 0 52 19t42 44zM285 412q0 -19 -14 -27q-2 -2 -31 -21.5t-51 -32t-31 -12.5t-15.5 6.5t-6.5 15.5q0 16 18 29q96 69 108 69q11 0 17 -8t6 -19z" />
<glyph unicode="&#xf4;" horiz-adv-x="339" d="M368 154q0 -33 -44.5 -54t-79.5 -17q-21 -40 -65 -66t-89 -26q-49 0 -81.5 35t-32.5 84q0 64 51.5 109t116.5 45q48 0 58 -16q29 1 46 -30.5t17 -62.5q0 -13 -3 -26q23 0 40 11.5t28 22.5t18 11q8 0 14 -6t6 -14zM213 159q0 13 -9.5 32.5t-20.5 19.5q-7 0 -7 -16 q0 -29 36 -53q1 6 1 17zM194 99q-63 40 -63 94q0 15 4 24q-44 -2 -73 -31t-29 -73q0 -31 18.5 -54t48.5 -23q26 0 52 19t42 44zM244 319q0 -9 -6 -15t-15 -6q-8 0 -25 11.5t-36.5 27.5t-24.5 19q-1 -1 -24.5 -16.5t-41 -25t-25.5 -9.5t-14 5.5t-6 13.5q0 16 49 51t66 35 q6 0 15 -4.5t20.5 -13.5t19.5 -16l19 -18q12 -10 13 -11q16 -12 16 -28z" />
<glyph unicode="&#xf5;" horiz-adv-x="339" d="M368 154q0 -33 -44.5 -54t-79.5 -17q-21 -40 -65 -66t-89 -26q-49 0 -81.5 35t-32.5 84q0 64 51.5 109t116.5 45q48 0 58 -16q29 1 46 -30.5t17 -62.5q0 -13 -3 -26q23 0 40 11.5t28 22.5t18 11q8 0 14 -6t6 -14zM213 159q0 13 -9.5 32.5t-20.5 19.5q-7 0 -7 -16 q0 -29 36 -53q1 6 1 17zM194 99q-63 40 -63 94q0 15 4 24q-44 -2 -73 -31t-29 -73q0 -31 18.5 -54t48.5 -23q26 0 52 19t42 44zM246 368q0 -20 -21.5 -40t-42.5 -20q-12 0 -20 4.5t-18 16t-14 14.5q-5 -3 -19 -17.5t-24 -14.5t-16.5 7t-6.5 17q0 20 23.5 40.5t43.5 20.5 q7 0 12.5 -2t11.5 -6.5t9.5 -7.5t10 -10t8.5 -9q2 2 9.5 12.5t14 15.5t14.5 5q10 0 17.5 -7.5t7.5 -18.5z" />
<glyph unicode="&#xf6;" horiz-adv-x="339" d="M368 154q0 -33 -44.5 -54t-79.5 -17q-21 -40 -65 -66t-89 -26q-49 0 -81.5 35t-32.5 84q0 64 51.5 109t116.5 45q48 0 58 -16q29 1 46 -30.5t17 -62.5q0 -13 -3 -26q23 0 40 11.5t28 22.5t18 11q8 0 14 -6t6 -14zM213 159q0 13 -9.5 32.5t-20.5 19.5q-7 0 -7 -16 q0 -29 36 -53q1 6 1 17zM194 99q-63 40 -63 94q0 15 4 24q-44 -2 -73 -31t-29 -73q0 -31 18.5 -54t48.5 -23q26 0 52 19t42 44zM278 373q0 -14 -17.5 -27.5t-32.5 -13.5q-14 0 -24 7.5t-10 20.5q0 14 15.5 27.5t28.5 13.5q15 0 27.5 -7t12.5 -21zM124 374q0 -16 -18.5 -30 t-34.5 -14q-11 0 -18.5 7t-7.5 18q0 18 16.5 33t34.5 15q11 0 19.5 -9t8.5 -20z" />
<glyph unicode="&#xf7;" d="M43 228h307q8 0 8 -8v-33q0 -8 -8 -8h-307q-8 0 -8 8v33q0 8 8 8zM245 100q0 -19 -22 -36.5t-42 -17.5q-14 0 -23.5 9t-9.5 23q0 15 14 33t28 18q7 0 10 -2q10 2 13 2q13 0 22.5 -8t9.5 -21zM246 332q0 -19 -22 -36.5t-42 -17.5q-14 0 -23.5 9t-9.5 23q0 15 14 33t28 18 q7 0 10 -2q10 2 13 2q13 0 22.5 -8t9.5 -21z" />
<glyph unicode="&#xf8;" horiz-adv-x="339" d="M368 155q0 -34 -44.5 -55t-79.5 -17q-21 -40 -65 -66t-89 -26q-20 0 -38 6q-6 -8 -17 -33t-23.5 -40.5t-28.5 -15.5q-10 0 -16.5 6t-6.5 16q0 18 53 91q-37 37 -37 89q0 64 51.5 109t116.5 45q26 0 43 -5q4 6 16 28.5t23.5 36.5t24.5 14q11 0 18.5 -7t7.5 -17 q0 -12 -45 -77q33 -27 33 -82q0 -13 -3 -26q23 0 40 11.5t28 22.5t18 11q8 0 14 -5.5t6 -13.5zM212 157q0 23 -16 35l-11 -16q4 -17 26 -32q1 4 1 13zM135 218q-44 -3 -73 -32t-29 -73q0 -24 13 -47l86 115q-1 4 -1 12q0 14 4 25zM194 99q-24 14 -41 35l-71 -95q9 -3 18 -3 q26 0 52 19t42 44z" />
<glyph unicode="&#xf9;" horiz-adv-x="365" d="M397 150q0 -6 -3 -11q-19 -42 -61.5 -84.5t-80.5 -42.5q-26 0 -49.5 15t-35.5 39q-72 -65 -117 -65q-38 0 -55 28t-17 69q0 29 12 73.5t27 69.5q10 15 28 15q11 0 18.5 -7.5t7.5 -18.5q0 -9 -20.5 -51.5t-20.5 -77.5q0 -49 30 -49q22 0 48.5 22t44.5 46q1 35 16.5 78.5 t42.5 43.5q13 0 20.5 -11t7.5 -25q0 -22 -15 -50t-17 -34q9 -56 46 -56q21 0 40.5 16.5t31.5 36t25.5 36t24.5 16.5q8 0 14.5 -6.5t6.5 -14.5zM164 309q0 -10 -6.5 -16t-16.5 -6q-8 0 -29 16.5t-46.5 39t-29.5 25.5q-12 10 -12 24q0 11 6.5 19t17.5 8q8 0 28 -16.5 t45.5 -41.5t27.5 -26q15 -13 15 -26z" />
<glyph unicode="&#xfa;" horiz-adv-x="365" d="M251 384q0 -19 -14 -27q-2 -2 -31 -21.5t-51 -32t-31 -12.5t-15.5 6.5t-6.5 15.5q0 16 18 29q96 69 108 69q11 0 17 -8t6 -19zM397 150q0 -6 -3 -11q-19 -42 -61.5 -84.5t-80.5 -42.5q-26 0 -49.5 15t-35.5 39q-72 -65 -117 -65q-38 0 -55 28t-17 69q0 29 12 73.5 t27 69.5q10 15 28 15q11 0 18.5 -7.5t7.5 -18.5q0 -9 -20.5 -51.5t-20.5 -77.5q0 -49 30 -49q22 0 48.5 22t44.5 46q1 35 16.5 78.5t42.5 43.5q13 0 20.5 -11t7.5 -25q0 -22 -15 -50t-17 -34q9 -56 46 -56q21 0 40.5 16.5t31.5 36t25.5 36t24.5 16.5q8 0 14.5 -6.5 t6.5 -14.5z" />
<glyph unicode="&#xfb;" horiz-adv-x="365" d="M397 150q0 -6 -3 -11q-19 -42 -61.5 -84.5t-80.5 -42.5q-26 0 -49.5 15t-35.5 39q-72 -65 -117 -65q-38 0 -55 28t-17 69q0 29 12 73.5t27 69.5q10 15 28 15q11 0 18.5 -7.5t7.5 -18.5q0 -9 -20.5 -51.5t-20.5 -77.5q0 -49 30 -49q22 0 48.5 22t44.5 46q1 35 16.5 78.5 t42.5 43.5q13 0 20.5 -11t7.5 -25q0 -22 -15 -50t-17 -34q9 -56 46 -56q21 0 40.5 16.5t31.5 36t25.5 36t24.5 16.5q8 0 14.5 -6.5t6.5 -14.5zM247 319q0 -9 -6 -15t-15 -6q-8 0 -25 11.5t-36.5 27.5t-24.5 19q-1 -1 -24.5 -16.5t-41 -25t-25.5 -9.5t-14 5.5t-6 13.5 q0 16 49 51t66 35q6 0 15 -4.5t20.5 -13.5t18.5 -16l20 -18q12 -10 13 -11q16 -12 16 -28z" />
<glyph unicode="&#xfc;" horiz-adv-x="365" d="M397 150q0 -6 -3 -11q-19 -42 -61.5 -84.5t-80.5 -42.5q-26 0 -49.5 15t-35.5 39q-72 -65 -117 -65q-38 0 -55 28t-17 69q0 29 12 73.5t27 69.5q10 15 28 15q11 0 18.5 -7.5t7.5 -18.5q0 -9 -20.5 -51.5t-20.5 -77.5q0 -49 30 -49q22 0 48.5 22t44.5 46q1 35 16.5 78.5 t42.5 43.5q13 0 20.5 -11t7.5 -25q0 -22 -15 -50t-17 -34q9 -56 46 -56q21 0 40.5 16.5t31.5 36t25.5 36t24.5 16.5q8 0 14.5 -6.5t6.5 -14.5zM284 370q0 -14 -17.5 -27.5t-32.5 -13.5q-14 0 -24 7.5t-10 20.5q0 14 15.5 27.5t28.5 13.5q15 0 27.5 -7t12.5 -21zM130 371 q0 -16 -18.5 -30t-34.5 -14q-11 0 -18.5 7t-7.5 18q0 18 16.5 33t34.5 15q11 0 19.5 -9t8.5 -20z" />
<glyph unicode="&#xfd;" horiz-adv-x="343" d="M108 290q-9 0 -15.5 6.5t-6.5 15.5q0 16 18 29q96 69 108 69q11 0 17 -8t6 -19q0 -19 -14 -27q-2 -2 -31 -21.5t-51 -32t-31 -12.5zM139 108v19q0 38 14 83t43 45q26 0 26 -44q0 -25 -12.5 -59.5t-12.5 -51.5q0 -18 7 -42q91 55 124 108q9 15 22 15q21 0 21 -24 q0 -27 -54.5 -73.5t-98.5 -73.5q41 -121 41 -201q0 -147 -156 -147q-66 0 -113 30t-47 93q0 37 21 75t56 69.5t67 54t68 43.5q-2 5 -7 23q-64 -52 -117 -52q-30 0 -50.5 19t-20.5 49q0 38 29.5 105.5t60.5 67.5q10 0 16 -6.5t6 -16.5q0 -19 -16 -25q-43 -68 -43 -113 q0 -28 31 -28q25 0 52 17.5t43 40.5zM116 -291q49 0 71 20t22 69q0 68 -40 184q-65 -37 -118 -88.5t-53 -107.5q0 -77 118 -77z" />
<glyph unicode="&#xfe;" horiz-adv-x="330" d="M358 153q0 -15 -26 -41q-57 -57 -138.5 -73t-150.5 18v-57v-52v-45q0 -27 -0.5 -41.5t-1.5 -34.5t-2.5 -31t-4 -23.5t-5.5 -20.5t-7 -14q-10 -16 -30 -13.5t-35 27.5q-18 30 -27 78.5t-9 79.5q0 129 64 245q1 34 5 83.5t18 128t35 129.5q36 91 90 91q49 0 49 -79 q0 -111 -81 -240q33 12 60 12q62 0 93.5 -52t9.5 -110q8 3 18 10.5t23 20.5l17 17q13 10 24.5 6t11.5 -19zM126 533q-28 -25 -54 -116q-18 -68 -30 -152q49 67 78 151q25 77 6 117zM216 140q0 37 -18 61.5t-49 24.5q-28 0 -66 -22t-40 -49q-1 -6 0 -23.5t4 -20.5 q30 -27 77 -27q39 0 65.5 14t26.5 42zM-2 82q-12 -23 -20 -73.5t-8 -81.5q0 -83 20 -128q4 17 8 134q4 137 0 149z" />
<glyph unicode="&#xff;" horiz-adv-x="343" d="M51 325q-11 0 -18.5 7t-7.5 18q0 18 16.5 33t34.5 15q11 0 19.5 -9t8.5 -20q0 -16 -18.5 -30t-34.5 -14zM208 327q-14 0 -24 7.5t-10 20.5q0 14 15.5 27.5t28.5 13.5q15 0 27.5 -7t12.5 -21t-17.5 -27.5t-32.5 -13.5zM139 108v19q0 38 14 83t43 45q26 0 26 -44 q0 -25 -12.5 -59.5t-12.5 -51.5q0 -18 7 -42q91 55 124 108q9 15 22 15q21 0 21 -24q0 -27 -54.5 -73.5t-98.5 -73.5q41 -121 41 -201q0 -147 -156 -147q-66 0 -113 30t-47 93q0 37 21 75t56 69.5t67 54t68 43.5q-2 5 -7 23q-64 -52 -117 -52q-30 0 -50.5 19t-20.5 49 q0 38 29.5 105.5t60.5 67.5q10 0 16 -6.5t6 -16.5q0 -19 -16 -25q-43 -68 -43 -113q0 -28 31 -28q25 0 52 17.5t43 40.5zM116 -291q49 0 71 20t22 69q0 68 -40 184q-65 -37 -118 -88.5t-53 -107.5q0 -77 118 -77z" />
<glyph unicode="&#x152;" horiz-adv-x="1173" d="M1105 107q22 0 22 -21q0 -31 -94 -57.5t-188 -39t-135 -12.5q-193 0 -241 52q-88 -53 -194 -53q-115 0 -201.5 78t-86.5 192q0 83 50 166q-4 5 -4 13q0 13 15 28q47 52 136 84t166 32q105 0 183 -55q88 56 250 56q94 0 180.5 -26.5t133.5 -88.5q8 -12 8 -21 q0 -18 -18.5 -27.5t-37.5 -9.5q-34 0 -34 23q0 12 10 17q-29 45 -101 63.5t-144 18.5q-125 0 -204 -43q57 -56 64 -146q55 -20 119 -31q49 9 82 9q81 0 81 -37q0 -14 -11 -21.5t-25 -7.5q-16 0 -46 3t-46 3q-82 0 -174 -45q-23 -73 -98 -135q24 -22 84.5 -32.5t109.5 -10.5 q168 0 378 80q8 2 11 2zM449 74v7q0 46 39.5 86t91.5 69q11 31 11 53v8q-123 52 -123 125q0 31 24 58q-23 14 -55 21.5t-53 8.5t-59 1q-110 0 -198.5 -74t-88.5 -182q0 -103 76.5 -164t181.5 -61q87 0 153 44zM642 283l-3 -22q6 3 18 7t18 7q-5 1 -16 4t-17 4zM523 425 q0 -34 65 -74q-15 55 -57 99q-8 -11 -8 -25z" />
<glyph unicode="&#x153;" horiz-adv-x="472" d="M494 111q0 -7 -3 -11q-22 -46 -69.5 -82t-94.5 -36q-34 0 -61.5 20.5t-39.5 53.5q-26 -29 -62.5 -47t-73.5 -18q-49 0 -81.5 35t-32.5 84q0 65 51 109.5t117 44.5q75 0 106 -52q37 54 88 54q25 0 40 -18.5t15 -44.5q0 -45 -36.5 -80.5t-82.5 -38.5q14 -49 58 -49 q26 0 51 15.5t38.5 30.5t33.5 42q8 11 18 11q9 0 15 -7t6 -16zM343 198q0 13 -7 19l-2 1h-2q-26 0 -42 -28.5t-18 -58.5q28 2 49.5 21t21.5 46zM212 157q0 10 -7 25t-16 15q-6 0 -6 -12q0 -23 28 -41q1 4 1 13zM194 99q-27 15 -45 40.5t-18 53.5q0 11 3 21q-45 -4 -73 -30.5 t-28 -70.5q0 -30 18 -53t47 -23q26 0 53.5 18.5t42.5 43.5z" />
<glyph unicode="&#x178;" horiz-adv-x="569" d="M580 146q0 -31 -29 -32q-26 -18 -80 -91q1 -32 1 -96q0 -252 -102 -252q-38 0 -57.5 29.5t-19.5 68.5q0 102 125 261q-1 36 -7.5 104t-7.5 99q-55 -65 -129 -113.5t-143 -48.5q-59 0 -93 34.5t-34 93.5q0 74 45.5 180t98.5 168q13 15 29 15q26 0 26 -27 q0 -20 -15.5 -46.5t-34.5 -25.5q-40 -58 -69.5 -126t-29.5 -123q0 -42 23 -67.5t65 -25.5q68 0 141.5 60.5t113.5 130.5q5 8 13.5 59.5t24.5 92.5t43 41q14 0 21.5 -9.5t7.5 -23.5q0 -54 -28 -116q-20 -43 -20 -44q-2 -7 -2 -47q0 -28 10 -173q61 73 84 73q10 0 19.5 -6.5 t9.5 -16.5zM422 -84l-1 38q-76 -108 -76 -181q0 -18 6.5 -35.5t21.5 -17.5q17 0 28 24.5t15 61t5.5 64t0.5 46.5zM470 651q0 -14 -17.5 -27.5t-32.5 -13.5q-14 0 -24 7.5t-10 20.5q0 14 15.5 27.5t28.5 13.5q15 0 27.5 -7t12.5 -21zM316 652q0 -16 -18.5 -30t-34.5 -14 q-11 0 -18.5 7t-7.5 18q0 18 16.5 33t34.5 15q11 0 19.5 -9t8.5 -20z" />
<glyph unicode="&#x2c6;" horiz-adv-x="250" d="M254 338q0 -9 -6 -15t-15 -6q-8 0 -25 11.5t-36.5 27.5t-24.5 19q-1 -1 -24.5 -16.5t-41 -25t-25.5 -9.5t-14 5.5t-6 13.5q0 16 49 51t66 35q6 0 15 -4.5t20.5 -13.5t19.5 -16l19 -17q12 -11 13 -12q16 -12 16 -28z" />
<glyph unicode="&#x2dc;" horiz-adv-x="250" d="M257 396q0 -18 -30 -42.5t-49 -24.5q-5 0 -10 1t-10.5 4t-8.5 4.5t-9 6.5t-8 6.5t-8 7.5l-7 7q-2 -2 -10.5 -9t-13.5 -10.5t-12.5 -7.5t-13.5 -4q-9 0 -16 6.5t-7 15.5q0 18 28.5 39.5t47.5 21.5q20 0 57 -35q2 2 11 10l15 13q6 5 14 9.5t13 4.5q10 0 18.5 -7t8.5 -17z " />
<glyph unicode="&#x2013;" horiz-adv-x="443" d="M409 161q0 -10 -7.5 -17.5t-17.5 -7.5q-4 0 -10 2q-22 9 -63 9q-31 0 -94 -4t-95 -4q-82 0 -82 38q0 11 6.5 19t17.5 8q7 0 15 -5q22 -12 76 -12q30 0 91.5 4.5t92.5 4.5q70 0 70 -35z" />
<glyph unicode="&#x2014;" horiz-adv-x="601" d="M561 163q0 -12 -8.5 -19t-20.5 -7q-3 0 -11 2q-34 9 -92 9q-40 0 -120 -4t-120 -4q-80 0 -116 8q-23 6 -23 30q0 11 8 19t19 8q6 0 16 -4q34 -13 113 -13q45 0 136.5 4.5t137.5 4.5q81 0 81 -34z" />
<glyph unicode="&#x2018;" horiz-adv-x="82" d="M57 510q0 -4 -1 -10t-1 -10q0 -2 0.5 -14.5t0 -20t-2 -17.5t-7.5 -15.5t-16 -5.5q-11 0 -17.5 7.5t-7.5 20.5t-1 24.5t1.5 26.5t1.5 20t-1 15t-1 15q0 26 23 26q29 0 29 -62z" />
<glyph unicode="&#x2019;" horiz-adv-x="82" d="M75 547q0 -21 -28 -105q-6 -28 -26 -28q-22 0 -22 28q0 14 3.5 31t11.5 42.5t9 30.5q8 25 30 25t22 -24z" />
<glyph unicode="&#x201a;" horiz-adv-x="115" d="M76 70q0 -11 -18.5 -72t-24.5 -69q-7 -10 -18 -10q-22 0 -22 28q0 14 5 35t14 51l12 36q7 24 30 24q9 0 15.5 -7t6.5 -16z" />
<glyph unicode="&#x201c;" horiz-adv-x="160" d="M144 445q0 -11 -6.5 -19.5t-17.5 -8.5t-17.5 6.5t-9 19.5t-3 23t0.5 26t1 19q0 6 -1.5 17.5t-1.5 17.5q0 26 22 26q21 0 28.5 -29t1.5 -50q3 -15 3 -48zM48 510q0 -4 -1 -10t-1 -10q0 -2 0.5 -14.5t0 -20t-2 -17.5t-7.5 -15.5t-16 -5.5q-11 0 -17.5 7.5t-7.5 20.5 t-1 24.5t1.5 26.5t1.5 20t-1 15t-1 15q0 26 23 26q29 0 29 -62z" />
<glyph unicode="&#x201d;" horiz-adv-x="160" d="M165 547q0 -21 -32 -106q-9 -26 -27 -26q-22 0 -22 24q0 10 5.5 30t13.5 45l10 32q3 10 12 17t19 7q21 0 21 -23zM63 548q0 -8 -5.5 -29t-13 -46t-9.5 -31q-9 -28 -26 -28q-22 0 -22 28q0 14 3.5 31t11.5 42.5t9 30.5q8 25 30 25t22 -23z" />
<glyph unicode="&#x201e;" horiz-adv-x="242" d="M189 63q0 -15 -34 -117q-9 -26 -28 -26q-20 0 -20 25q0 9 5.5 31.5t14 52.5t9.5 33q7 23 31 23q22 0 22 -22zM90 70q0 -11 -18.5 -72t-24.5 -69q-7 -10 -18 -10q-22 0 -22 28q0 14 5 35t14 51l12 36q7 24 30 24q9 0 15.5 -7t6.5 -16z" />
<glyph unicode="&#x2022;" horiz-adv-x="223" d="M176 196q0 -28 -22.5 -53t-50.5 -25q-30 0 -53.5 25t-23.5 55q0 27 25.5 46.5t52.5 19.5q28 0 50 -20.5t22 -47.5z" />
<glyph unicode="&#x2026;" horiz-adv-x="582" d="M539 37q0 -21 -23.5 -39.5t-44.5 -18.5q-15 0 -25.5 10t-10.5 25q0 16 15 35.5t30 19.5q6 0 11 -3q10 2 15 2q14 0 23.5 -8.5t9.5 -22.5zM336 38q0 -21 -23.5 -39.5t-44.5 -18.5q-15 0 -25.5 10t-10.5 25q0 16 15 35.5t30 19.5q7 0 11 -3q10 2 15 2q14 0 23.5 -8.5 t9.5 -22.5zM133 37q0 -21 -23.5 -39.5t-44.5 -18.5q-15 0 -25.5 10t-10.5 25q0 16 15 35.5t30 19.5q6 0 11 -3q10 2 15 2q14 0 23.5 -8.5t9.5 -22.5z" />
<glyph unicode="&#x2039;" horiz-adv-x="225" d="M162 260q0 -19 -87 -116q3 -4 18 -26l27 -38q12 -18 22.5 -36t10.5 -24q0 -21 -20 -21q-18 0 -69.5 63.5t-51.5 83.5q0 13 10 26q94 110 119 110q9 0 15 -6.5t6 -15.5z" />
<glyph unicode="&#x203a;" horiz-adv-x="225" d="M166 136q0 -17 -56 -76t-73 -59q-9 0 -15 6.5t-6 15.5q0 12 11 27l76 89q-78 111 -78 124q0 8 5.5 14t13.5 6q18 0 70 -63.5t52 -83.5z" />
<glyph unicode="&#x2122;" horiz-adv-x="608" d="M536 547q0 -7 -14.5 -8.5t-14.5 -11.5v-159q4 -9 6 -10t12 -1q9 0 9 -13q0 -8 -8 -8h-85q-8 0 -8 13q0 8 13 8t13 11v113l-66 -143l-7 -5h-6l-7 5l-68 144v-114q0 -8 4 -10t9 -1t9 -1.5t4 -11.5q0 -8 -8 -8h-63q-8 0 -8 13q0 7 13 8t13 11v159q0 8 -4.5 10.5t-10 1t-10 2 t-4.5 12.5q0 8 8 8h61l7 -5l67 -147l70 147l7 5h59q8 0 8 -14zM221 503q0 -8 -14 -8q-6 0 -10.5 15t-10.5 19q-11 7 -27 7q-7 0 -10 -1v-167q0 -11 20 -11q7 0 7 -13q0 -8 -8 -8h-89q-8 0 -8 13q0 7 14 8t14 11v167q-4 1 -11 1q-16 0 -24.5 -6.5t-10.5 -14t-6 -14t-11 -6.5 q-8 0 -8 8v50q0 8 8 8h177q8 0 8 -8v-50z" />
<glyph unicode="&#xe000;" horiz-adv-x="270" d="M0 270h270v-270h-270v270z" />
<glyph unicode="&#xfb01;" horiz-adv-x="454" d="M465 178q9 0 15 -6t6 -15q0 -39 -57 -94.5t-97 -55.5q-65 0 -67 89q-14 -10 -32 -18q7 -28 7 -50q0 -59 -34.5 -107.5t-91.5 -48.5q-125 0 -128 230q-29 19 -29 45q0 31 37 46q3 40 14 96t31 122t53 111t72 45q31 0 47 -21.5t16 -53.5q0 -96 -141 -291q82 -8 129 -78 q29 11 55 39q0 2 1 10t1.5 12.5t1.5 12.5t3 13.5t4 13t5 12t7 9t9 6.5t11 2q11 0 17.5 -7.5t6.5 -18.5q0 -13 -9.5 -57t-9.5 -67q0 -45 25 -45q8 0 17 4t18 12t16 16t16 20l12 20q5 7 12 19t9 15q10 14 22 14zM145 508q-37 -30 -62.5 -115t-35.5 -159q45 58 88 133.5 t43 123.5q0 25 -16 25q-7 0 -17 -8zM320 288q-14 0 -23.5 8t-9.5 22q0 25 14 48t38 23q16 0 25 -12.5t9 -29.5q0 -23 -15.5 -41t-37.5 -18zM146 108h18q-39 44 -104 44q-26 0 -33 -4q1 -4 1 -12q49 -28 118 -28zM130 -76q29 0 44.5 34t15.5 66q0 24 -7 42q-23 -3 -44 -3 q-47 0 -103 18q8 -157 94 -157z" />
<glyph unicode="&#xfb02;" horiz-adv-x="479" d="M506 152q0 -47 -42.5 -95t-89.5 -48q-38 0 -63 27t-36 67q-18 -14 -42 -25q7 -28 7 -50q0 -59 -34.5 -107.5t-91.5 -48.5q-125 0 -128 230q-29 19 -29 45q0 31 37 46q3 40 14 96t31 122t53 111t72 45q31 0 47 -21.5t16 -53.5q0 -96 -141 -291q82 -8 129 -78q25 10 51 35 q-1 11 -1 35q0 32 8 85.5t22.5 114t42 103.5t60.5 43q26 0 40 -23t14 -51q0 -70 -40 -157.5t-91 -151.5q19 -95 63 -95q28 0 46.5 28t31 56t25.5 28q19 0 19 -21zM404 455q0 28 -11 28q-1 0 -7 -3q-32 -30 -49 -105.5t-19 -140.5q32 51 59 114t27 107zM178 491q0 25 -16 25 q-7 0 -17 -8q-37 -30 -62.5 -115t-35.5 -159q45 58 88 133.5t43 123.5zM161 112q-36 39 -93 39q-35 0 -36 -13q38 -28 106 -28q15 0 23 2zM190 24q0 24 -7 42q-23 -3 -44 -3q-47 0 -103 18q8 -157 94 -157q29 0 44.5 34t15.5 66z" />
<glyph unicode="&#xfb03;" horiz-adv-x="737" d="M664 357q0 -23 -15.5 -41t-37.5 -18q-14 0 -23.5 8t-9.5 22q0 25 14 48t38 23q16 0 25 -12.5t9 -29.5zM769 157q0 -26 -32 -66.5t-60 -62.5q-29 -21 -62 -21q-67 0 -67 93q0 19 1.5 38.5t5.5 48.5t14.5 47.5t26.5 18.5q11 0 17.5 -7.5t6.5 -18.5q0 -13 -9.5 -57t-9.5 -67 q0 -45 25 -45q42 0 100 106q10 14 22 14q9 0 15 -6t6 -15zM602 159q0 -19 -30 -44.5t-55 -36.5q7 -28 7 -50q0 -59 -34.5 -107.5t-91.5 -48.5q-125 0 -128 230q-29 19 -29 45q0 31 37 46q3 40 14 96t31 122t53 111t72 45q31 0 47 -21.5t16 -53.5q0 -96 -141 -291 q82 -8 129 -78q11 4 42.5 31t38.5 27q9 0 15.5 -6.5t6.5 -15.5zM429 508q-37 -30 -62.5 -115t-35.5 -159q45 58 88 133.5t43 123.5q0 25 -16 25q-7 0 -17 -8zM429 111l16 1q-55 37 -94 37q-27 0 -28 -12l3 -2q51 -27 103 -24zM414 -76q29 0 44.5 34t15.5 66q0 24 -7 42 q-23 -3 -44 -3q-47 0 -103 18q8 -157 94 -157zM318 159q0 -19 -30 -44.5t-55 -36.5q7 -28 7 -50q0 -59 -34.5 -107.5t-91.5 -48.5q-125 0 -128 230q-29 19 -29 45q0 31 37 46q3 40 14 96t31 122t53 111t72 45q31 0 47 -21.5t16 -53.5q0 -96 -141 -291q82 -8 129 -78 q11 4 42.5 31t38.5 27q9 0 15.5 -6.5t6.5 -15.5zM145 508q-37 -30 -62.5 -115t-35.5 -159q45 58 88 133.5t43 123.5q0 25 -16 25q-7 0 -17 -8zM145 111l16 1q-55 37 -94 37q-27 0 -28 -12l3 -2q51 -27 103 -24zM130 -76q29 0 44.5 34t15.5 66q0 24 -7 42q-23 -3 -44 -3 q-47 0 -103 18q8 -157 94 -157z" />
<glyph unicode="&#xfb04;" horiz-adv-x="767" d="M795 150q0 -46 -43 -93.5t-90 -47.5q-42 0 -68 33t-33.5 71t-7.5 80q0 32 8 85.5t22.5 114t42 103.5t60.5 43q26 0 40 -23t14 -51q0 -70 -39 -156t-92 -153q20 -95 63 -95q20 0 36.5 17.5t25 38.5t19.5 38.5t22 17.5q20 0 20 -23zM692 455q0 21 -9 30q-3 -1 -9 -5 q-32 -30 -49 -105.5t-19 -140.5q32 51 59 114t27 107zM602 159q0 -19 -30 -44.5t-55 -36.5q7 -28 7 -50q0 -59 -34.5 -107.5t-91.5 -48.5q-125 0 -128 230q-29 19 -29 45q0 31 37 46q3 40 14 96t31 122t53 111t72 45q31 0 47 -21.5t16 -53.5q0 -96 -141 -291q82 -8 129 -78 q11 4 42.5 31t38.5 27q9 0 15.5 -6.5t6.5 -15.5zM429 508q-37 -30 -62.5 -115t-35.5 -159q45 58 88 133.5t43 123.5q0 25 -16 25q-7 0 -17 -8zM429 111l16 1q-55 37 -94 37q-27 0 -28 -12l3 -2q51 -27 103 -24zM414 -76q29 0 44.5 34t15.5 66q0 24 -7 42q-23 -3 -44 -3 q-47 0 -103 18q8 -157 94 -157zM318 159q0 -19 -30 -44.5t-55 -36.5q7 -28 7 -50q0 -59 -34.5 -107.5t-91.5 -48.5q-125 0 -128 230q-29 19 -29 45q0 31 37 46q3 40 14 96t31 122t53 111t72 45q31 0 47 -21.5t16 -53.5q0 -96 -141 -291q82 -8 129 -78q11 4 42.5 31t38.5 27 q9 0 15.5 -6.5t6.5 -15.5zM145 508q-37 -30 -62.5 -115t-35.5 -159q45 58 88 133.5t43 123.5q0 25 -16 25q-7 0 -17 -8zM145 111l16 1q-55 37 -94 37q-27 0 -28 -12l3 -2q51 -27 103 -24zM130 -76q29 0 44.5 34t15.5 66q0 24 -7 42q-23 -3 -44 -3q-47 0 -103 18 q8 -157 94 -157z" />
</font>
</defs>
</svg>
